<svg width="71" height="71" viewBox="0 0 71 71" fill="none" xmlns="http://www.w3.org/2000/svg">
<circle cx="35.5" cy="35.5" r="35.5" fill="#C1DAFE" fill-opacity="0.8"/>
<path d="M44.25 34.375C40.5192 34.375 37.5 37.6458 37.5 41.6875C37.5 45.7292 40.5192 49 44.25 49C47.9808 49 51 45.7292 51 41.6875C51 37.6458 47.9808 34.375 44.25 34.375ZM47.25 42.0069C47.25 42.2781 47.0452 42.5 46.7948 42.5H43.9556C43.7053 42.5 43.5005 42.2781 43.5005 42.0069V38.1186C43.5005 37.8474 43.7053 37.6255 43.9556 37.6255H44.5448C44.7952 37.6255 45 37.8474 45 38.1186V40.875H46.7948C47.0452 40.875 47.25 41.0969 47.25 41.3681V42.0069ZM44.25 32.75C44.5031 32.75 44.7525 32.7668 45 32.7911V30.3125C45 29.0125 43.95 27.875 42.75 27.875H39V25.4375C39 24.1375 37.95 23 36.75 23H29.25C28.05 23 27 24.1375 27 25.4375V27.875H23.25C22.05 27.875 21 29.0125 21 30.3125V34.375H39.5212C40.8619 33.3548 42.4908 32.75 44.25 32.75ZM36 27.875H30V26.25H36V27.875ZM36.3197 39.25H30.75C30.3356 39.25 30 38.8864 30 38.4375V36H21V43.3125C21 44.6125 22.05 45.75 23.25 45.75H36.9108C36.3328 44.5292 36 43.151 36 41.6875C36 40.8415 36.1163 40.0259 36.3197 39.25Z" fill="#565252"/>
</svg>
