<svg width="71" height="71" viewBox="0 0 71 71" fill="none" xmlns="http://www.w3.org/2000/svg">
<circle cx="35.5" cy="35.5" r="35.5" fill="#C1DAFE" fill-opacity="0.8"/>
<path d="M36.0781 30.5H35.5C35.5 22.1172 32.1469 22.1172 28.5625 22.1172C24.8625 22.1172 21.0469 22.1172 21.0469 13.1562H21.625C21.625 21.5391 24.9781 21.5391 28.5625 21.5391C32.2625 21.5391 36.0781 21.5391 36.0781 30.5Z" fill="#94989B"/>
<path d="M52.8438 46.1094C52.8438 47.0922 52.0922 47.8438 51.225 47.8438H19.775C18.9078 47.8438 18.1562 47.0922 18.1562 46.1094V32.2344C18.1562 31.2516 18.9078 30.5 19.775 30.5H51.225C52.15 30.5 52.8438 31.2516 52.8438 32.2344V46.1094Z" fill="#D0D0D0"/>
<path d="M21.625 35.7031C21.625 35.9922 21.3937 36.2812 21.0469 36.2812H19.8906C19.5437 36.2812 19.3125 36.05 19.3125 35.7031V34.5469C19.3125 34.2 19.5437 33.9688 19.8906 33.9688H21.0469C21.3937 33.9688 21.625 34.2 21.625 34.5469V35.7031Z" fill="#565252"/>
<path d="M25.0938 35.7031C25.0938 35.9922 24.8625 36.2812 24.5156 36.2812H23.3594C23.0125 36.2812 22.7812 36.05 22.7812 35.7031V34.5469C22.7812 34.2 23.0125 33.9688 23.3594 33.9688H24.5156C24.8625 33.9688 25.0938 34.2 25.0938 34.5469V35.7031Z" fill="#565252"/>
<path d="M28.5625 35.7031C28.5625 35.9922 28.3312 36.2812 27.9844 36.2812H26.8281C26.4812 36.2812 26.25 36.05 26.25 35.7031V34.5469C26.25 34.2 26.4812 33.9688 26.8281 33.9688H27.9844C28.3312 33.9688 28.5625 34.2 28.5625 34.5469V35.7031Z" fill="#565252"/>
<path d="M32.0312 35.7031C32.0312 35.9922 31.8 36.2812 31.4531 36.2812H30.2969C29.95 36.2812 29.7188 36.05 29.7188 35.7031V34.5469C29.7188 34.2 29.95 33.9688 30.2969 33.9688H31.4531C31.8 33.9688 32.0312 34.2 32.0312 34.5469V35.7031Z" fill="#565252"/>
<path d="M35.5 35.7031C35.5 35.9922 35.2687 36.2812 34.9219 36.2812H33.7656C33.4187 36.2812 33.1875 36.05 33.1875 35.7031V34.5469C33.1875 34.2 33.4187 33.9688 33.7656 33.9688H34.9219C35.2687 33.9688 35.5 34.2 35.5 34.5469V35.7031Z" fill="#565252"/>
<path d="M38.9688 35.7031C38.9688 35.9922 38.7375 36.2812 38.3906 36.2812H37.2344C36.9453 36.2812 36.6562 36.05 36.6562 35.7031V34.5469C36.6562 34.2 36.8875 33.9688 37.2344 33.9688H38.3906C38.7375 33.9688 38.9688 34.2 38.9688 34.5469V35.7031Z" fill="#565252"/>
<path d="M42.4375 35.7031C42.4375 35.9922 42.2062 36.2812 41.8594 36.2812H40.7031C40.3562 36.2812 40.125 36.05 40.125 35.7031V34.5469C40.125 34.2 40.3562 33.9688 40.7031 33.9688H41.8594C42.2062 33.9688 42.4375 34.2 42.4375 34.5469V35.7031Z" fill="#565252"/>
<path d="M45.9062 35.7031C45.9062 35.9922 45.675 36.2812 45.3281 36.2812H44.1719C43.8828 36.2812 43.5938 36.05 43.5938 35.7031V34.5469C43.5938 34.2 43.825 33.9688 44.1719 33.9688H45.3281C45.6172 33.9688 45.9062 34.2 45.9062 34.5469V35.7031Z" fill="#565252"/>
<path d="M47.0625 39.1719C47.0625 39.5187 46.8312 39.75 46.4844 39.75H45.3281C44.9812 39.75 44.75 39.5187 44.75 39.1719V38.0156C44.75 37.7266 44.9812 37.4375 45.3281 37.4375H46.4844C46.7734 37.4375 47.0625 37.6687 47.0625 38.0156V39.1719Z" fill="#565252"/>
<path d="M43.5938 39.1719C43.5938 39.5187 43.3625 39.75 43.0156 39.75H41.8594C41.5703 39.75 41.2812 39.5187 41.2812 39.1719V38.0156C41.2812 37.7266 41.5125 37.4375 41.8594 37.4375H43.0156C43.3625 37.4375 43.5938 37.6687 43.5938 38.0156V39.1719Z" fill="#565252"/>
<path d="M40.125 39.1719C40.125 39.5187 39.8937 39.75 39.5469 39.75H38.3906C38.0437 39.75 37.8125 39.5187 37.8125 39.1719V38.0156C37.8125 37.7266 38.0437 37.4375 38.3906 37.4375H39.5469C39.8359 37.4375 40.125 37.6687 40.125 38.0156V39.1719Z" fill="#565252"/>
<path d="M36.6562 39.1719C36.6562 39.5187 36.425 39.75 36.0781 39.75H34.9219C34.575 39.75 34.3438 39.5187 34.3438 39.1719V38.0156C34.3438 37.7266 34.575 37.4375 34.9219 37.4375H36.0781C36.425 37.4375 36.6562 37.6687 36.6562 38.0156V39.1719Z" fill="#565252"/>
<path d="M33.1875 39.1719C33.1875 39.5187 32.9562 39.75 32.6094 39.75H31.4531C31.1641 39.75 30.875 39.5187 30.875 39.1719V38.0156C30.875 37.7266 31.1062 37.4375 31.4531 37.4375H32.6094C32.9562 37.4375 33.1875 37.6687 33.1875 38.0156V39.1719Z" fill="#565252"/>
<path d="M29.7188 39.1719C29.7188 39.5187 29.4875 39.75 29.1406 39.75H27.9844C27.6375 39.75 27.4062 39.5187 27.4062 39.1719V38.0156C27.4062 37.7266 27.6375 37.4375 27.9844 37.4375H29.1406C29.4875 37.4375 29.7188 37.6687 29.7188 38.0156V39.1719Z" fill="#565252"/>
<path d="M26.25 39.1719C26.25 39.5187 26.0187 39.75 25.6719 39.75H24.5156C24.1687 39.75 23.9375 39.5187 23.9375 39.1719V38.0156C23.9375 37.7266 24.1687 37.4375 24.5156 37.4375H25.6719C26.0187 37.4375 26.25 37.6687 26.25 38.0156V39.1719Z" fill="#565252"/>
<path d="M27.4062 42.6406C27.4062 42.9297 27.175 43.2188 26.8281 43.2188H25.6719C25.3828 43.2188 25.0938 42.9875 25.0938 42.6406V41.4844C25.0938 41.1375 25.325 40.9062 25.6719 40.9062H26.8281C27.175 40.9062 27.4062 41.1375 27.4062 41.4844V42.6406Z" fill="#565252"/>
<path d="M26.25 46.1094C26.25 46.3984 26.0187 46.6875 25.6719 46.6875H24.5156C24.1687 46.6875 23.9375 46.4562 23.9375 46.1094V44.9531C23.9375 44.6062 24.1687 44.375 24.5156 44.375H25.6719C26.0187 44.375 26.25 44.6062 26.25 44.9531V46.1094Z" fill="#565252"/>
<path d="M29.7188 46.1094C29.7188 46.3984 29.4875 46.6875 29.1406 46.6875H27.9844C27.6375 46.6875 27.4062 46.4562 27.4062 46.1094V44.9531C27.4062 44.6062 27.6375 44.375 27.9844 44.375H29.1406C29.4875 44.375 29.7188 44.6062 29.7188 44.9531V46.1094Z" fill="#565252"/>
<path d="M30.875 42.6406C30.875 42.9297 30.6437 43.2188 30.2969 43.2188H29.1406C28.7937 43.2188 28.5625 42.9875 28.5625 42.6406V41.4844C28.5625 41.1375 28.7937 40.9062 29.1406 40.9062H30.2969C30.6437 40.9062 30.875 41.1375 30.875 41.4844V42.6406Z" fill="#565252"/>
<path d="M34.3438 42.6406C34.3438 42.9297 34.1125 43.2188 33.7656 43.2188H32.6094C32.2625 43.2188 32.0312 42.9875 32.0312 42.6406V41.4844C32.0312 41.1375 32.2625 40.9062 32.6094 40.9062H33.7656C34.0547 40.9062 34.3438 41.1375 34.3438 41.4844V42.6406Z" fill="#565252"/>
<path d="M37.8125 42.6406C37.8125 42.9297 37.5812 43.2188 37.2344 43.2188H36.0781C35.7312 43.2188 35.5 42.9875 35.5 42.6406V41.4844C35.5 41.1375 35.7312 40.9062 36.0781 40.9062H37.2344C37.5812 40.9062 37.8125 41.1375 37.8125 41.4844V42.6406Z" fill="#565252"/>
<path d="M41.2812 42.6406C41.2812 42.9297 41.05 43.2188 40.7031 43.2188H39.5469C39.2 43.2188 38.9688 42.9875 38.9688 42.6406V41.4844C38.9688 41.1375 39.2 40.9062 39.5469 40.9062H40.7031C41.05 40.9062 41.2812 41.1375 41.2812 41.4844V42.6406Z" fill="#565252"/>
<path d="M44.75 42.6406C44.75 42.9297 44.5187 43.2188 44.1719 43.2188H43.0156C42.7266 43.2188 42.4375 42.9875 42.4375 42.6406V41.4844C42.4375 41.1375 42.6687 40.9062 43.0156 40.9062H44.1719C44.4609 40.9062 44.75 41.1375 44.75 41.4844V42.6406Z" fill="#565252"/>
<path d="M45.9062 46.1094C45.9062 46.3984 45.675 46.6875 45.3281 46.6875H44.1719C43.8828 46.6875 43.5938 46.4562 43.5938 46.1094V44.9531C43.5938 44.6062 43.825 44.375 44.1719 44.375H45.3281C45.6172 44.375 45.9062 44.6062 45.9062 44.9531V46.1094Z" fill="#565252"/>
<path d="M51.6875 35.7031C51.6875 35.9922 51.4562 36.2812 51.1672 36.2812H47.5828C47.2938 36.2812 47.0625 36.05 47.0625 35.7031V34.5469C47.0625 34.2 47.2938 33.9688 47.5828 33.9688H51.1672C51.4562 33.9688 51.6875 34.2 51.6875 34.5469V35.7031Z" fill="#565252"/>
<path d="M51.6875 46.1094C51.6875 46.3984 51.4562 46.6875 51.1672 46.6875H47.5828C47.2938 46.6875 47.0625 46.4562 47.0625 46.1094V44.9531C47.0625 44.6062 47.2938 44.375 47.5828 44.375H51.1672C51.4562 44.375 51.6875 44.6062 51.6875 44.9531V46.1094Z" fill="#565252"/>
<path d="M51.6875 42.6406C51.6875 42.9297 51.4563 43.2188 51.225 43.2188H46.3687C46.1375 43.2188 45.9062 42.9875 45.9062 42.6406V41.4844C45.9062 41.1375 46.1375 40.9062 46.3687 40.9062H51.225C51.5141 40.9062 51.6875 41.1375 51.6875 41.4844V42.6406Z" fill="#565252"/>
<path d="M23.9375 42.6406C23.9375 42.9297 23.7063 43.2188 23.4172 43.2188H19.8328C19.5438 43.2188 19.3125 42.9875 19.3125 42.6406V41.4844C19.3125 41.1375 19.5438 40.9062 19.8328 40.9062H23.4172C23.7063 40.9062 23.9375 41.1375 23.9375 41.4844V42.6406Z" fill="#565252"/>
<path d="M51.6875 39.1719C51.6875 39.5187 51.4562 39.75 51.1672 39.75H48.7391C48.45 39.75 48.2188 39.5187 48.2188 39.1719V38.0156C48.2188 37.7266 48.45 37.4375 48.7391 37.4375H51.1672C51.4562 37.4375 51.6875 37.6687 51.6875 38.0156V39.1719Z" fill="#565252"/>
<path d="M22.7812 39.1719C22.7812 39.5187 22.55 39.75 22.2609 39.75H19.8328C19.5438 39.75 19.3125 39.5187 19.3125 39.1719V38.0156C19.3125 37.7266 19.5438 37.4375 19.8328 37.4375H22.2609C22.55 37.4375 22.7812 37.6687 22.7812 38.0156V39.1719Z" fill="#565252"/>
<path d="M22.7812 46.1094C22.7812 46.3984 22.55 46.6875 22.2609 46.6875H19.8328C19.5438 46.6875 19.3125 46.3984 19.3125 46.1094V44.9531C19.3125 44.6641 19.5438 44.375 19.8328 44.375H22.2609C22.55 44.375 22.7812 44.6062 22.7812 44.9531V46.1094Z" fill="#565252"/>
<path d="M42.4375 46.1094C42.4375 46.3984 42.2063 46.6875 41.975 46.6875H31.3375C31.0484 46.6875 30.875 46.4562 30.875 46.1094V44.9531C30.875 44.6641 31.1062 44.375 31.3375 44.375H41.9172C42.2062 44.375 42.3797 44.6062 42.3797 44.9531V46.1094H42.4375Z" fill="#565252"/>
<path d="M22.1453 32.8125H21.1047C20.2953 32.8125 20.2953 31.6562 21.1047 31.6562H22.1453C23.0125 31.6562 23.0125 32.8125 22.1453 32.8125Z" fill="#565252"/>
<path d="M25.614 32.8125H24.5156C23.7062 32.8125 23.7062 31.6562 24.5156 31.6562H25.614C26.4812 31.6562 26.4812 32.8125 25.614 32.8125Z" fill="#565252"/>
<path d="M29.0828 32.8125H27.9844C27.175 32.8125 27.175 31.6562 27.9844 31.6562H29.0828C29.95 31.6562 29.95 32.8125 29.0828 32.8125Z" fill="#565252"/>
<path d="M32.5516 32.8125H31.511C30.7016 32.8125 30.7016 31.6562 31.511 31.6562H32.5516C33.4188 31.6562 33.4188 32.8125 32.5516 32.8125Z" fill="#565252"/>
<path d="M36.0203 32.8125H34.9797C34.1703 32.8125 34.1703 31.6562 34.9797 31.6562H36.0203C36.8875 31.6562 36.8875 32.8125 36.0203 32.8125Z" fill="#565252"/>
<path d="M39.4891 32.8125H38.4485C37.6391 32.8125 37.6391 31.6562 38.4485 31.6562H39.4891C40.3563 31.6562 40.3563 32.8125 39.4891 32.8125Z" fill="#565252"/>
<path d="M42.9578 32.8125H41.9172C41.1078 32.8125 41.1078 31.6562 41.9172 31.6562H42.9578C43.825 31.6562 43.825 32.8125 42.9578 32.8125Z" fill="#565252"/>
<path d="M46.4266 32.8125H45.386C44.5766 32.8125 44.5766 31.6562 45.386 31.6562H46.4266C47.2938 31.6562 47.2938 32.8125 46.4266 32.8125Z" fill="#565252"/>
<path d="M49.8953 32.8125H48.8547C48.0453 32.8125 48.0453 31.6562 48.8547 31.6562H49.8953C50.7625 31.6562 50.7625 32.8125 49.8953 32.8125Z" fill="#565252"/>
</svg>
