<svg width="196" height="181" viewBox="0 0 196 181" fill="none" xmlns="http://www.w3.org/2000/svg">
<rect width="195.7" height="181" fill="white"/>
<path fill-rule="evenodd" clip-rule="evenodd" d="M192.635 46.4105C192.483 46.2848 192.123 46.2405 191.956 46.2026C191.26 46.0465 190.543 45.9785 189.834 45.9785C187.646 45.9824 185.423 46.2269 183.272 46.6501C181.905 46.9185 180.254 47.8228 178.895 47.3316C176.528 46.4762 174.136 46.5183 171.89 47.7396C169.837 48.8564 168.278 50.9775 167.368 53.2694C167.231 53.6155 166.674 54.889 166.517 55.7473C166.449 55.9228 166.384 56.0993 166.326 56.2787C166.161 56.788 166.012 57.3061 165.874 57.8254C165.815 58.0469 165.667 58.5358 165.843 58.6304C165.561 59.222 165.312 59.8313 165.104 60.4605C164.5 62.2905 163.839 64.298 163.627 66.2376C163.548 66.9557 163.545 67.6781 163.618 68.3976C163.654 68.7534 163.639 69.4684 163.851 69.7391C164.301 70.3128 164.531 69.5095 164.481 69.1268C164.094 66.2107 164.841 63.4721 165.726 60.7308C166.299 58.9584 167.24 57.3365 168.293 55.8681C169.146 54.6791 170.061 53.7431 171.23 52.955C172.66 51.991 174.188 51.212 175.703 50.4303C176.699 49.9162 177.696 49.4156 178.72 48.9726C178.948 48.8739 179.306 48.621 179.558 48.62C180.092 48.6181 180.849 49.0665 181.364 49.2333C183.06 49.7824 184.778 50.4854 186.53 50.7658C187.655 50.9458 188.708 50.7431 189.759 50.3167C189.867 50.2733 190.047 50.1613 190.268 50.0013C191.049 49.6594 191.787 49.2291 192.43 48.608C192.8 48.2506 193.137 47.7882 193.443 47.365C193.535 47.2387 193.575 47.0937 193.577 46.9557C193.646 46.9146 193.692 46.866 193.703 46.8097C193.779 46.3933 193.082 46.3858 192.635 46.4105Z" fill="#89C5CC"/>
<path fill-rule="evenodd" clip-rule="evenodd" d="M14.9188 81.1232C14.4896 81.5189 14.0686 81.923 13.6579 82.3436C13.3449 82.6642 12.791 83.0479 12.6787 83.5335C12.5619 84.0383 12.9306 84.5108 13.2219 84.8158C14.7623 86.4295 16.4969 87.5204 18.6315 87.7021C21.9181 87.9815 24.7785 87.0257 27.6302 85.1454C29.6333 83.8243 30.9601 81.8705 31.2499 79.2323C33.6355 80.361 35.9426 81.9172 37.9033 83.8269C38.8707 84.7691 39.7039 85.813 40.4745 86.9703C40.9682 87.7118 41.4456 88.4649 41.8887 89.2472C42.0812 89.5868 42.2771 90.1897 42.5951 90.3853C42.9684 90.6152 43.4197 90.2548 43.4012 89.7824C43.3856 89.389 43.0128 88.9328 42.8382 88.6113C42.5487 88.0773 42.2547 87.5466 41.945 87.0276C41.4439 86.1867 40.9261 85.3581 40.3613 84.5713C39.0919 82.8034 37.477 81.3434 35.8029 80.0981C32.5913 77.7092 29.0665 76.2042 25.1587 76.0766C22.7559 75.9982 20.7345 76.933 18.6797 78.3289C17.4003 79.198 16.0797 80.0528 14.9188 81.1232Z" fill="#8C19E7" fill-opacity="0.62"/>
<path fill-rule="evenodd" clip-rule="evenodd" d="M46.0882 69.5684C43.5841 66.6323 41.0714 63.7327 38.2738 61.1469C36.625 59.6235 34.8876 58.238 33.1859 56.7935C33.3821 56.9894 33.5746 57.1908 33.7626 57.3974C33.2314 56.9868 32.5361 56.7547 31.9731 56.3745C31.3449 55.9507 30.7443 55.4657 30.1554 54.9771C29.0057 54.0232 27.8733 53.0511 26.6915 52.1471C25.3749 51.1398 24.0104 50.2092 22.6713 49.2398C21.5348 48.4173 20.3845 47.5169 19.1687 46.8444C18.5061 46.4778 17.8419 46.0436 17.1765 45.6612C16.9538 45.5333 14.6943 43.9089 14.7 43.9037C14.8249 43.7968 15.962 44.4049 16.1378 44.4868C16.6514 44.7258 17.1426 45.0114 17.6365 45.2963C17.3654 44.6876 17.1509 44.0478 17.0341 43.3746C16.998 43.1667 16.7089 41.654 16.8568 41.527C16.9307 41.4636 17.6516 44.1705 17.6885 44.4305C17.7185 44.6419 17.7141 44.9463 17.7749 45.1464C17.873 45.4699 17.868 45.3721 18.0842 45.5544C18.4803 45.8882 19.0061 46.0967 19.4349 46.3755C19.666 46.5225 20.3819 47.1053 20.813 47.2714C22.1175 47.9929 23.4398 49.1028 24.6793 50.0243C24.354 49.3282 24.1065 48.6003 23.9259 47.8374C23.883 47.6564 23.4197 46.032 23.5321 45.9355C23.6586 45.8267 24.5413 48.3082 24.5936 48.543C24.6907 48.9794 24.7109 49.4648 24.8326 49.8896C24.966 50.3556 25.3826 50.5207 25.7579 50.7924C27.1391 51.7916 28.4731 52.8533 29.7846 53.9639C31.2158 51.0656 29.5656 47.5661 28.175 45.1344C27.1724 43.3817 25.823 41.8793 24.398 40.5676C22.4963 38.8169 20.3205 37.4184 18.1474 36.1391C15.6153 34.6487 12.8785 33.7249 10.0333 33.2985C8.54521 33.0751 7.02282 33.0816 5.51968 33.1531C4.78541 33.1878 4.0806 33.2985 3.37694 33.5715C3.05978 33.6945 2.75326 33.8496 2.45456 34.0231C2.22761 34.1549 1.67861 34.2942 1.54811 34.4907C0.473965 36.0828 -0.0755471 37.6691 0.00836991 39.6694C0.0877086 41.563 0.612936 43.4575 1.32573 45.1467C2.11955 47.0273 3.14048 48.7343 4.47573 50.1671C5.49445 51.2602 6.63338 52.2115 7.76479 53.1505C11.7889 56.4898 16.8908 59.3942 22.1027 58.6479C23.7899 58.4067 25.3945 57.7348 26.894 56.8217C27.2474 56.6067 27.5986 56.3891 27.9322 56.1353C28.1571 55.964 28.7583 55.1924 28.9844 55.1642C29.2946 55.126 29.9623 55.8438 30.2532 56.0624C32.4639 57.7241 34.6166 59.4758 36.724 61.2981C38.9665 63.237 41.0987 65.308 43.1684 67.4761C44.0485 68.3983 44.9232 69.3227 45.7777 70.2759C45.9768 70.4977 46.4633 71.3143 46.8242 71.3512C47.0522 71.3749 47.2061 71.1528 47.1737 70.9125C47.1171 70.4945 46.3447 69.8692 46.0882 69.5684Z" fill="#C1DEE2"/>
<path fill-rule="evenodd" clip-rule="evenodd" d="M190.006 58.1725C189.036 57.9313 187.965 57.9497 186.977 57.9695C181.678 58.0517 176.475 60.9082 173.089 65.4724C170.206 69.3579 169.413 74.1889 168.843 79.0723C168.787 79.5571 168.763 80.0389 168.731 80.5249C168.724 80.6291 168.714 80.7221 168.703 80.8098C168.479 81.0378 168.361 81.3036 168.494 81.5957C168.001 82.8251 167.583 84.0856 167.225 85.386C166.171 89.2132 165.099 93.1133 165.759 97.1377C165.914 94.923 166.238 92.6583 166.627 90.4799C166.649 90.3549 166.673 90.2309 166.698 90.1072C166.701 90.0942 166.703 90.081 166.706 90.068C166.843 89.401 167.022 88.7541 167.239 88.1172C167.241 88.11 167.243 88.1032 167.246 88.0964C167.274 88.0126 167.305 87.929 167.335 87.8458C167.397 87.6732 167.461 87.501 167.529 87.3297C167.552 87.2711 167.574 87.2122 167.595 87.1529C167.911 86.2702 168.045 85.2756 168.328 84.3625C168.396 84.1549 168.467 83.948 168.541 83.7421C168.545 83.7301 168.55 83.7181 168.554 83.7061C168.755 83.1521 168.977 82.6052 169.211 82.0639C169.339 81.9547 169.407 81.6844 169.517 81.4386C169.539 81.3901 169.717 81.0672 169.77 80.881C169.908 80.577 170.045 80.273 170.184 79.9692C170.18 79.9712 170.176 79.9728 170.172 79.9747C170.311 79.683 170.45 79.3929 170.589 79.1037C170.619 79.0403 170.65 78.9768 170.681 78.913C170.731 78.8117 170.78 78.7103 170.83 78.6093C171.294 77.6635 171.786 76.7368 172.297 75.8215C172.48 75.4948 172.915 75.0262 172.999 74.6597C173.002 74.6458 173.003 74.6331 173.005 74.6202C174.114 72.8465 175.39 71.2107 176.922 69.9145C176.736 70.1425 176.343 70.9154 176.239 71.0685C175.921 71.537 175.575 71.9732 175.228 72.4148C174.607 73.2059 174.001 74.0218 173.462 74.8847C172.476 76.4629 171.626 78.1236 170.822 79.818C170.815 79.8278 170.806 79.8371 170.799 79.8475C170.395 80.4145 170.141 81.2712 169.85 81.9198C171.001 81.313 172.274 80.9176 173.454 80.3788C174.632 79.8417 175.777 79.2433 176.884 78.541C178.354 77.6072 179.879 76.5532 181.268 75.3604C182.859 74.2362 184.197 72.6888 185.377 71.065C186.774 69.1436 188.055 67.2057 188.846 64.8727C189.235 63.7265 189.541 62.5311 189.723 61.3217C189.731 61.2693 189.741 61.2119 189.752 61.1527C189.937 60.735 190.103 60.3079 190.242 59.8711C190.463 59.1782 190.986 58.416 190.006 58.1725Z" fill="#69A1AC"/>
<path fill-rule="evenodd" clip-rule="evenodd" d="M25.6494 66.2897C25.3456 65.915 25.0044 65.577 24.6036 65.3358C24.5023 65.2749 23.7477 64.8669 23.6986 64.9563C23.5841 65.1648 25.5581 66.1699 25.6494 66.2897ZM29.2273 63.7871C29.2247 63.8029 29.4863 64.3084 29.5577 64.4638C29.7093 64.7944 29.8492 65.1311 29.9808 65.4689C29.7861 64.8728 29.5856 64.3197 29.2273 63.7871ZM10.9296 67.9022C10.6776 67.9944 10.3747 67.6302 10.7015 67.5405C10.966 67.4686 10.953 67.4518 11.0718 67.2089C11.1682 67.012 11.2276 66.7718 11.3123 66.5652C11.4918 66.1268 11.6954 65.7085 11.9453 65.3167C12.4809 64.4768 13.1335 63.7531 13.8655 63.1431C15.1429 62.0791 16.5751 61.1061 18.0945 60.6175C20.5102 59.8404 23.2597 59.7924 25.6792 60.3312C27.1778 60.6647 28.5471 61.245 29.5421 62.6188C30.0394 63.3053 30.4299 64.1096 30.6005 64.9951C30.6451 65.2267 30.6366 65.4841 30.6923 65.7107C30.7782 66.0594 30.7404 65.9665 31.0984 66.0342C31.4891 66.1083 31.8796 66.1838 32.27 66.2609C33.2923 66.4623 34.3206 66.676 35.3167 67.0027C35.6446 67.1102 35.9651 67.2416 36.2785 67.3941C36.5153 67.5094 37.4586 67.8717 37.5732 68.2221C37.764 68.8052 37.1247 68.541 36.926 68.4137C36.7519 68.3027 36.5733 68.1987 36.3922 68.1032C35.9358 67.863 35.4603 67.6768 34.9741 67.5288C34.4485 67.3689 33.9125 67.2494 33.3782 67.1296C32.8803 67.0182 32.3803 66.9169 31.8796 66.8197C31.6015 66.766 31.3233 66.7135 31.045 66.6614C30.9497 66.6433 30.7822 66.5497 30.7947 66.6905C30.2095 66.562 29.5768 66.5804 28.9807 66.5451C28.2507 66.5018 27.5179 66.4661 26.7854 66.492C26.257 66.5108 25.7284 66.5503 25.2026 66.6313C24.8955 66.6785 24.5933 66.7475 24.2919 66.8349C24.1264 66.8832 23.4737 66.9852 23.3835 67.1493C23.4222 67.0787 24.1426 67.1474 24.2343 67.1432C24.6011 67.1276 24.9649 67.0862 25.3303 67.0399C26.0085 66.9534 26.6867 66.9084 27.3669 66.9149C27.3644 67.0509 26.8997 67.2931 26.7863 67.3831C26.532 67.5855 26.2883 67.8057 26.0611 68.0475C25.661 68.4733 25.1816 69.0008 24.9049 69.5056C24.9865 69.3566 25.3889 69.1633 25.5316 69.0497C25.7605 68.8677 25.9849 68.6734 26.197 68.4659C26.3927 68.2742 26.5755 68.067 26.7553 67.8555C26.935 67.6441 27.1787 67.2041 27.415 67.0632C27.4292 67.0545 27.5322 67.1471 27.5904 67.1157C27.6496 67.0839 27.723 66.9253 27.7377 66.9188C27.9576 66.8223 28.375 66.9424 28.6062 66.9547C29.2054 66.9861 29.8043 67.0273 30.4028 67.0648C30.5885 67.0765 30.7461 67.0282 30.8163 67.184C30.8908 67.3504 30.754 67.7872 30.7151 67.9682C30.5706 68.6404 30.3144 69.243 29.9106 69.764C29.1548 70.7396 28.2223 71.3897 27.1693 71.8249C23.1357 73.4911 18.8445 74.1585 14.8121 72.4252C13.1427 71.7074 10.6286 70.4251 10.9296 67.9022Z" fill="#89C5CC"/>
<g opacity="0.6">
<path opacity="0.6" fill-rule="evenodd" clip-rule="evenodd" d="M195.617 146.403C198.361 167.555 131.812 181.351 74.5322 171.723C17.252 162.095 -9.02539 124.496 18.3077 104.462C45.641 84.4276 192.873 125.252 195.617 146.403Z" fill="#8C19E7" fill-opacity="0.62"/>
</g>
<path d="M78.5394 7.771H37.8748C36.6184 7.771 35.5999 8.93073 35.5999 10.3613V102.966C35.5999 104.397 36.6184 105.556 37.8748 105.556H78.5394C79.7958 105.556 80.8144 104.397 80.8144 102.966V10.3613C80.8144 8.93073 79.7958 7.771 78.5394 7.771Z" fill="#F2F2F2"/>
<path fill-rule="evenodd" clip-rule="evenodd" d="M58.0648 99.4043C60.4205 99.4043 62.3304 97.2297 62.3304 94.5474C62.3304 91.8651 60.4205 89.6906 58.0648 89.6906C55.7091 89.6906 53.7993 91.8651 53.7993 94.5474C53.7993 97.2297 55.7091 99.4043 58.0648 99.4043Z" fill="white"/>
<path fill-rule="evenodd" clip-rule="evenodd" d="M54.3681 14.2468C54.6823 14.2468 54.9368 13.9569 54.9368 13.5992C54.9368 13.2416 54.6823 12.9517 54.3681 12.9517C54.0538 12.9517 53.7993 13.2416 53.7993 13.5992C53.7993 13.9569 54.0538 14.2468 54.3681 14.2468Z" fill="white"/>
<path d="M61.7616 12.9517H56.9274C56.6133 12.9517 56.3586 13.2416 56.3586 13.5992C56.3586 13.9569 56.6133 14.2468 56.9274 14.2468H61.7616C62.0757 14.2468 62.3304 13.9569 62.3304 13.5992C62.3304 13.2416 62.0757 12.9517 61.7616 12.9517Z" fill="white"/>
<path d="M75.6958 16.8372H40.7185C40.0903 16.8372 39.5811 17.417 39.5811 18.1323V33.0268C39.5811 33.7421 40.0903 34.322 40.7185 34.322H75.6958C76.324 34.322 76.8333 33.7421 76.8333 33.0268V18.1323C76.8333 17.417 76.324 16.8372 75.6958 16.8372Z" fill="white"/>
<path d="M70.5771 22.0826H51.5245C51.0533 22.0826 50.6714 22.5175 50.6714 23.054V23.734C50.6714 24.2705 51.0533 24.7054 51.5245 24.7054H70.5771C71.0483 24.7054 71.4302 24.2705 71.4302 23.734V23.054C71.4302 22.5175 71.0483 22.0826 70.5771 22.0826Z" fill="#8C19E7" fill-opacity="0.62"/>
<path d="M63.7523 26.4539H51.5245C51.0533 26.4539 50.6714 26.8888 50.6714 27.4252V28.1052C50.6714 28.6417 51.0533 29.0766 51.5245 29.0766H63.7523C64.2235 29.0766 64.6054 28.6417 64.6054 28.1052V27.4252C64.6054 26.8888 64.2235 26.4539 63.7523 26.4539Z" fill="#8C19E7" fill-opacity="0.62"/>
<path fill-rule="evenodd" clip-rule="evenodd" d="M45.5528 29.4651C47.4373 29.4651 48.9652 27.7254 48.9652 25.5796C48.9652 23.4338 47.4373 21.6941 45.5528 21.6941C43.6683 21.6941 42.1404 23.4338 42.1404 25.5796C42.1404 27.7254 43.6683 29.4651 45.5528 29.4651Z" fill="#1471FB"/>
<path d="M75.6958 36.9124H40.7185C40.0903 36.9124 39.5811 37.4922 39.5811 38.2075V49.2165C39.5811 49.9318 40.0903 50.5116 40.7185 50.5116H75.6958C76.324 50.5116 76.8333 49.9318 76.8333 49.2165V38.2075C76.8333 37.4922 76.324 36.9124 75.6958 36.9124Z" fill="white"/>
<path d="M70.5771 40.9922H51.5245C51.0533 40.9922 50.6714 41.4271 50.6714 41.9636V42.0607C50.6714 42.5972 51.0533 43.0321 51.5245 43.0321H70.5771C71.0483 43.0321 71.4302 42.5972 71.4302 42.0607V41.9636C71.4302 41.4271 71.0483 40.9922 70.5771 40.9922Z" fill="#8C19E7" fill-opacity="0.62"/>
<path d="M63.7523 44.392H51.5245C51.0533 44.392 50.6714 44.8269 50.6714 45.3633V45.4605C50.6714 45.997 51.0533 46.4319 51.5245 46.4319H63.7523C64.2235 46.4319 64.6054 45.997 64.6054 45.4605V45.3633C64.6054 44.8269 64.2235 44.392 63.7523 44.392Z" fill="#8C19E7" fill-opacity="0.62"/>
<path fill-rule="evenodd" clip-rule="evenodd" d="M45.5528 47.5974C47.4373 47.5974 48.9652 45.8577 48.9652 43.7119C48.9652 41.5662 47.4373 39.8264 45.5528 39.8264C43.6683 39.8264 42.1404 41.5662 42.1404 43.7119C42.1404 45.8577 43.6683 47.5974 45.5528 47.5974Z" fill="#1471FB"/>
<path d="M75.6958 53.1019H40.7185C40.0903 53.1019 39.5811 53.6818 39.5811 54.3971V65.406C39.5811 66.1213 40.0903 66.7012 40.7185 66.7012H75.6958C76.324 66.7012 76.8333 66.1213 76.8333 65.406V54.3971C76.8333 53.6818 76.324 53.1019 75.6958 53.1019Z" fill="white"/>
<path d="M70.5771 57.1818H51.5245C51.0533 57.1818 50.6714 57.6167 50.6714 58.1531V58.2503C50.6714 58.7868 51.0533 59.2217 51.5245 59.2217H70.5771C71.0483 59.2217 71.4302 58.7868 71.4302 58.2503V58.1531C71.4302 57.6167 71.0483 57.1818 70.5771 57.1818Z" fill="#8C19E7" fill-opacity="0.62"/>
<path d="M63.7523 60.5815H51.5245C51.0533 60.5815 50.6714 61.0164 50.6714 61.5529V61.6501C50.6714 62.1865 51.0533 62.6214 51.5245 62.6214H63.7523C64.2235 62.6214 64.6054 62.1865 64.6054 61.6501V61.5529C64.6054 61.0164 64.2235 60.5815 63.7523 60.5815Z" fill="#8C19E7" fill-opacity="0.62"/>
<path fill-rule="evenodd" clip-rule="evenodd" d="M45.5528 63.7871C47.4373 63.7871 48.9652 62.0474 48.9652 59.9016C48.9652 57.7559 47.4373 56.0161 45.5528 56.0161C43.6683 56.0161 42.1404 57.7559 42.1404 59.9016C42.1404 62.0474 43.6683 63.7871 45.5528 63.7871Z" fill="#AFB9C5"/>
<path d="M75.6958 69.2916H40.7185C40.0903 69.2916 39.5811 69.8715 39.5811 70.5868V81.5957C39.5811 82.311 40.0903 82.8909 40.7185 82.8909H75.6958C76.324 82.8909 76.8333 82.311 76.8333 81.5957V70.5868C76.8333 69.8715 76.324 69.2916 75.6958 69.2916Z" fill="white"/>
<path d="M70.5771 73.3713H51.5245C51.0533 73.3713 50.6714 73.8062 50.6714 74.3427V74.4398C50.6714 74.9763 51.0533 75.4112 51.5245 75.4112H70.5771C71.0483 75.4112 71.4302 74.9763 71.4302 74.4398V74.3427C71.4302 73.8062 71.0483 73.3713 70.5771 73.3713Z" fill="#8C19E7" fill-opacity="0.62"/>
<path d="M63.7523 76.7712H51.5245C51.0533 76.7712 50.6714 77.2061 50.6714 77.7426V77.8398C50.6714 78.3762 51.0533 78.8111 51.5245 78.8111H63.7523C64.2235 78.8111 64.6054 78.3762 64.6054 77.8398V77.7426C64.6054 77.2061 64.2235 76.7712 63.7523 76.7712Z" fill="#8C19E7" fill-opacity="0.62"/>
<path fill-rule="evenodd" clip-rule="evenodd" d="M45.5528 79.9767C47.4373 79.9767 48.9652 78.237 48.9652 76.0912C48.9652 73.9454 47.4373 72.2057 45.5528 72.2057C43.6683 72.2057 42.1404 73.9454 42.1404 76.0912C42.1404 78.237 43.6683 79.9767 45.5528 79.9767Z" fill="#1471FB"/>
<path fill-rule="evenodd" clip-rule="evenodd" d="M44.1707 86.7764C43.7939 86.7764 43.4183 86.7851 43.042 86.8071C42.7551 86.8243 42.3169 86.7566 42.0743 86.9603C41.8221 87.1717 41.8395 87.6043 41.879 87.91C42.0871 89.5263 42.5953 90.9594 43.6586 92.1047C45.2957 93.8677 47.1722 94.7637 49.3928 95.1626C50.9529 95.443 52.3929 95.0538 53.5412 93.7907C54.3804 95.5638 55.0168 97.526 55.3361 99.5063C55.4937 100.483 55.5417 101.449 55.5141 102.444C55.4962 103.081 55.4655 103.717 55.4055 104.351C55.3794 104.627 55.2559 105.044 55.3506 105.305C55.4618 105.61 55.8369 105.64 56.0052 105.379C56.1454 105.162 56.1198 104.736 56.1486 104.479C56.1963 104.052 56.2404 103.625 56.272 103.197C56.3235 102.503 56.3613 101.807 56.3587 101.11C56.3522 99.5451 56.0465 97.9741 55.6285 96.4885C54.8265 93.6382 53.5256 91.1051 51.502 89.1177C50.2576 87.8957 48.8335 87.401 47.218 87.1351C46.2119 86.9697 45.1896 86.7764 44.1707 86.7764Z" fill="#89C5CC"/>
<path fill-rule="evenodd" clip-rule="evenodd" d="M49.9807 98.1091C45.9145 98.1091 43.1761 101.841 41.8813 105.719C41.3931 107.181 41.2788 108.786 41.0905 110.321C41.0302 110.813 41.0527 111.564 40.8769 112.003C40.8132 112.162 40.6671 112.219 40.737 112.436C40.7794 112.567 40.8622 112.648 40.987 112.674C41.2426 112.727 41.6044 112.41 41.8236 112.285C43.6424 111.246 44.8373 109.64 45.8121 107.676C46.4167 106.458 47.0298 105.193 47.3887 103.856C47.6079 103.04 47.7356 102.18 47.8107 101.332C47.8403 100.998 47.8687 100.657 47.867 100.321C47.8653 99.9881 47.7291 99.812 47.6312 99.5222C48.988 98.9374 50.5196 98.7781 51.8939 99.3839C53.165 99.9444 54.2209 101.027 54.8121 102.388C54.9657 102.742 55.0842 103.115 55.1704 103.496C55.227 103.745 55.2296 104.068 55.3345 104.294C55.5881 104.84 56.1222 104.475 56.071 103.966C55.928 102.548 55.2153 101.123 54.3042 100.137C53.1551 98.893 51.5979 98.1091 49.9807 98.1091Z" fill="#89C5CC"/>
<path d="M97.3077 16.1896H56.6431C55.3867 16.1896 54.3682 17.3493 54.3682 18.7799V111.385C54.3682 112.815 55.3867 113.975 56.6431 113.975H97.3077C98.5641 113.975 99.5827 112.815 99.5827 111.385V18.7799C99.5827 17.3493 98.5641 16.1896 97.3077 16.1896Z" fill="#8C19E7" fill-opacity="0.62"/>
<path fill-rule="evenodd" clip-rule="evenodd" d="M76.8334 107.823C79.1891 107.823 81.0989 105.648 81.0989 102.966C81.0989 100.284 79.1891 98.1091 76.8334 98.1091C74.4777 98.1091 72.5679 100.284 72.5679 102.966C72.5679 105.648 74.4777 107.823 76.8334 107.823Z" fill="white"/>
<path fill-rule="evenodd" clip-rule="evenodd" d="M73.1366 22.6655C73.4508 22.6655 73.7053 22.3757 73.7053 22.0179C73.7053 21.6602 73.4508 21.3704 73.1366 21.3704C72.8224 21.3704 72.5679 21.6602 72.5679 22.0179C72.5679 22.3757 72.8224 22.6655 73.1366 22.6655Z" fill="white"/>
<path d="M80.5302 21.3704H75.6959C75.3818 21.3704 75.1272 21.6603 75.1272 22.0179C75.1272 22.3756 75.3818 22.6655 75.6959 22.6655H80.5302C80.8443 22.6655 81.0989 22.3756 81.0989 22.0179C81.0989 21.6603 80.8443 21.3704 80.5302 21.3704Z" fill="white"/>
<path d="M94.4641 25.2559H59.4868C58.8586 25.2559 58.3494 25.8357 58.3494 26.551V41.4455C58.3494 42.1608 58.8586 42.7407 59.4868 42.7407H94.4641C95.0923 42.7407 95.6016 42.1608 95.6016 41.4455V26.551C95.6016 25.8357 95.0923 25.2559 94.4641 25.2559Z" fill="white"/>
<path d="M80.8144 30.5012H61.7618C61.2906 30.5012 60.9087 30.9361 60.9087 31.4726V32.1526C60.9087 32.689 61.2906 33.1239 61.7618 33.1239H80.8144C81.2856 33.1239 81.6676 32.689 81.6676 32.1526V31.4726C81.6676 30.9361 81.2856 30.5012 80.8144 30.5012Z" fill="#8C19E7" fill-opacity="0.62"/>
<path d="M73.9896 34.8724H61.7618C61.2906 34.8724 60.9087 35.3073 60.9087 35.8438V36.5238C60.9087 37.0603 61.2906 37.4952 61.7618 37.4952H73.9896C74.4608 37.4952 74.8427 37.0603 74.8427 36.5238V35.8438C74.8427 35.3073 74.4608 34.8724 73.9896 34.8724Z" fill="#8C19E7" fill-opacity="0.62"/>
<path fill-rule="evenodd" clip-rule="evenodd" d="M91.6205 36.2648C92.7198 36.2648 93.611 35.25 93.611 33.9982C93.611 32.7465 92.7198 31.7317 91.6205 31.7317C90.5211 31.7317 89.6299 32.7465 89.6299 33.9982C89.6299 35.25 90.5211 36.2648 91.6205 36.2648Z" fill="#8C19E7" fill-opacity="0.62"/>
<path fill-rule="evenodd" clip-rule="evenodd" d="M91.6207 34.9696C92.0919 34.9696 92.4738 34.5348 92.4738 33.9982C92.4738 33.4617 92.0919 33.0269 91.6207 33.0269C91.1495 33.0269 90.7676 33.4617 90.7676 33.9982C90.7676 34.5348 91.1495 34.9696 91.6207 34.9696Z" fill="#F2F2F2"/>
<path d="M94.4641 45.3309H59.4868C58.8586 45.3309 58.3494 45.9108 58.3494 46.6261V57.635C58.3494 58.3503 58.8586 58.9302 59.4868 58.9302H94.4641C95.0923 58.9302 95.6016 58.3503 95.6016 57.635V46.6261C95.6016 45.9108 95.0923 45.3309 94.4641 45.3309Z" fill="white"/>
<path d="M89.3455 49.4106H70.2928C69.8216 49.4106 69.4397 49.8455 69.4397 50.382V50.4792C69.4397 51.0156 69.8216 51.4505 70.2928 51.4505H89.3455C89.8166 51.4505 90.1986 51.0156 90.1986 50.4792V50.382C90.1986 49.8455 89.8166 49.4106 89.3455 49.4106Z" fill="#8C19E7" fill-opacity="0.62"/>
<path d="M82.5206 52.8105H70.2928C69.8216 52.8105 69.4397 53.2454 69.4397 53.7819V53.8791C69.4397 54.4155 69.8216 54.8504 70.2928 54.8504H82.5206C82.9918 54.8504 83.3737 54.4155 83.3737 53.8791V53.7819C83.3737 53.2454 82.9918 52.8105 82.5206 52.8105Z" fill="#8C19E7" fill-opacity="0.62"/>
<path fill-rule="evenodd" clip-rule="evenodd" d="M64.3211 56.0161C66.2056 56.0161 67.7335 54.2764 67.7335 52.1306C67.7335 49.9849 66.2056 48.2451 64.3211 48.2451C62.4366 48.2451 60.9087 49.9849 60.9087 52.1306C60.9087 54.2764 62.4366 56.0161 64.3211 56.0161Z" fill="#1471FB"/>
<path d="M94.4641 61.5205H59.4868C58.8586 61.5205 58.3494 62.1004 58.3494 62.8157V73.8246C58.3494 74.5399 58.8586 75.1198 59.4868 75.1198H94.4641C95.0923 75.1198 95.6016 74.5399 95.6016 73.8246V62.8157C95.6016 62.1004 95.0923 61.5205 94.4641 61.5205Z" fill="white"/>
<path d="M80.8144 65.6003H61.7618C61.2906 65.6003 60.9087 66.0352 60.9087 66.5717V66.6689C60.9087 67.2053 61.2906 67.6402 61.7618 67.6402H80.8144C81.2856 67.6402 81.6676 67.2053 81.6676 66.6689V66.5717C81.6676 66.0352 81.2856 65.6003 80.8144 65.6003Z" fill="#8C19E7" fill-opacity="0.62"/>
<path d="M73.9896 69.0001H61.7618C61.2906 69.0001 60.9087 69.435 60.9087 69.9715V70.0686C60.9087 70.6051 61.2906 71.04 61.7618 71.04H73.9896C74.4608 71.04 74.8427 70.6051 74.8427 70.0686V69.9715C74.8427 69.435 74.4608 69.0001 73.9896 69.0001Z" fill="#AFB9C5"/>
<path fill-rule="evenodd" clip-rule="evenodd" d="M91.6205 70.5868C92.7198 70.5868 93.611 69.572 93.611 68.3203C93.611 67.0685 92.7198 66.0537 91.6205 66.0537C90.5211 66.0537 89.6299 67.0685 89.6299 68.3203C89.6299 69.572 90.5211 70.5868 91.6205 70.5868Z" fill="#8C19E7" fill-opacity="0.62"/>
<path fill-rule="evenodd" clip-rule="evenodd" d="M91.6207 69.2915C92.0919 69.2915 92.4738 68.8567 92.4738 68.3201C92.4738 67.7836 92.0919 67.3488 91.6207 67.3488C91.1495 67.3488 90.7676 67.7836 90.7676 68.3201C90.7676 68.8567 91.1495 69.2915 91.6207 69.2915Z" fill="#F2F2F2"/>
<path d="M94.4641 77.7102H59.4868C58.8586 77.7102 58.3494 78.2901 58.3494 79.0054V90.0143C58.3494 90.7296 58.8586 91.3095 59.4868 91.3095H94.4641C95.0923 91.3095 95.6016 90.7296 95.6016 90.0143V79.0054C95.6016 78.2901 95.0923 77.7102 94.4641 77.7102Z" fill="white"/>
<path d="M89.3455 81.7899H70.2928C69.8216 81.7899 69.4397 82.2248 69.4397 82.7613V82.8584C69.4397 83.3949 69.8216 83.8298 70.2928 83.8298H89.3455C89.8166 83.8298 90.1986 83.3949 90.1986 82.8584V82.7613C90.1986 82.2248 89.8166 81.7899 89.3455 81.7899Z" fill="#8C19E7" fill-opacity="0.62"/>
<path d="M82.5206 85.1897H70.2928C69.8216 85.1897 69.4397 85.6246 69.4397 86.1611V86.2582C69.4397 86.7947 69.8216 87.2296 70.2928 87.2296H82.5206C82.9918 87.2296 83.3737 86.7947 83.3737 86.2582V86.1611C83.3737 85.6246 82.9918 85.1897 82.5206 85.1897Z" fill="#8C19E7" fill-opacity="0.62"/>
<path fill-rule="evenodd" clip-rule="evenodd" d="M64.3211 88.3953C66.2056 88.3953 67.7335 86.6556 67.7335 84.5098C67.7335 82.364 66.2056 80.6243 64.3211 80.6243C62.4366 80.6243 60.9087 82.364 60.9087 84.5098C60.9087 86.6556 62.4366 88.3953 64.3211 88.3953Z" fill="#1471FB"/>
<path d="M166.125 24.2844H75.4114C74.155 24.2844 73.1365 25.4442 73.1365 26.8748V133.726C73.1365 135.157 74.155 136.317 75.4114 136.317H166.125C167.381 136.317 168.4 135.157 168.4 133.726V26.8748C168.4 25.4442 167.381 24.2844 166.125 24.2844Z" fill="#F2F2F2"/>
<path d="M161.575 38.2075H146.219C144.963 38.2075 143.944 39.3673 143.944 40.7979V61.8444C143.944 63.275 144.963 64.4347 146.219 64.4347H161.575C162.831 64.4347 163.85 63.275 163.85 61.8444V40.7979C163.85 39.3673 162.831 38.2075 161.575 38.2075Z" fill="white"/>
<path fill-rule="evenodd" clip-rule="evenodd" d="M153.897 53.4258C156.41 53.4258 158.447 51.1065 158.447 48.2451C158.447 45.3838 156.41 43.0645 153.897 43.0645C151.384 43.0645 149.347 45.3838 149.347 48.2451C149.347 51.1065 151.384 53.4258 153.897 53.4258Z" fill="#8C19E7" fill-opacity="0.62"/>
<path d="M160.153 54.7209H147.641C147.17 54.7209 146.788 55.1558 146.788 55.6923C146.788 56.2288 147.17 56.6637 147.641 56.6637H160.153C160.624 56.6637 161.006 56.2288 161.006 55.6923C161.006 55.1558 160.624 54.7209 160.153 54.7209Z" fill="#8C19E7" fill-opacity="0.62"/>
<path d="M157.878 57.9589H149.916C149.444 57.9589 149.062 58.3938 149.062 58.9302C149.062 59.4667 149.444 59.9016 149.916 59.9016H157.878C158.349 59.9016 158.731 59.4667 158.731 58.9302C158.731 58.3938 158.349 57.9589 157.878 57.9589Z" fill="#8C19E7" fill-opacity="0.62"/>
<path d="M73.1365 26.8748C73.1365 25.4442 74.1551 24.2844 75.4114 24.2844H166.125C167.381 24.2844 168.4 25.4442 168.4 26.8748V33.0268H73.1365V26.8748Z" fill="#1471FB"/>
<path fill-rule="evenodd" clip-rule="evenodd" d="M76.8333 30.1127C77.4614 30.1127 77.9707 29.5328 77.9707 28.8175C77.9707 28.1023 77.4614 27.5223 76.8333 27.5223C76.2051 27.5223 75.6958 28.1023 75.6958 28.8175C75.6958 29.5328 76.2051 30.1127 76.8333 30.1127Z" fill="#F2F2F2"/>
<path fill-rule="evenodd" clip-rule="evenodd" d="M80.2456 30.1127C80.8738 30.1127 81.3831 29.5328 81.3831 28.8175C81.3831 28.1023 80.8738 27.5223 80.2456 27.5223C79.6175 27.5223 79.1082 28.1023 79.1082 28.8175C79.1082 29.5328 79.6175 30.1127 80.2456 30.1127Z" fill="#F2F2F2"/>
<path fill-rule="evenodd" clip-rule="evenodd" d="M83.658 30.1127C84.2861 30.1127 84.7955 29.5328 84.7955 28.8175C84.7955 28.1023 84.2861 27.5223 83.658 27.5223C83.0298 27.5223 82.5205 28.1023 82.5205 28.8175C82.5205 29.5328 83.0298 30.1127 83.658 30.1127Z" fill="#F2F2F2"/>
<path d="M161.575 67.025H146.219C144.963 67.025 143.944 68.1848 143.944 69.6154V127.25C143.944 128.681 144.963 129.841 146.219 129.841H161.575C162.831 129.841 163.85 128.681 163.85 127.25V69.6154C163.85 68.1848 162.831 67.025 161.575 67.025Z" fill="white"/>
<path d="M157.594 72.8533H150.2C149.572 72.8533 149.063 73.4331 149.063 74.1484V79.9767C149.063 80.692 149.572 81.2719 150.2 81.2719H157.594C158.222 81.2719 158.731 80.692 158.731 79.9767V74.1484C158.731 73.4331 158.222 72.8533 157.594 72.8533Z" fill="#8C19E7" fill-opacity="0.62"/>
<path d="M157.594 83.8623H150.2C149.572 83.8623 149.063 84.4422 149.063 85.1575V90.6619C149.063 91.3772 149.572 91.9571 150.2 91.9571H157.594C158.222 91.9571 158.731 91.3772 158.731 90.6619V85.1575C158.731 84.4422 158.222 83.8623 157.594 83.8623Z" fill="#AFB9C5"/>
<path d="M157.594 94.5474H150.2C149.572 94.5474 149.063 95.1272 149.063 95.8425V101.347C149.063 102.062 149.572 102.642 150.2 102.642H157.594C158.222 102.642 158.731 102.062 158.731 101.347V95.8425C158.731 95.1272 158.222 94.5474 157.594 94.5474Z" fill="#8C19E7" fill-opacity="0.62"/>
<path d="M157.594 115.918H150.2C149.572 115.918 149.063 116.498 149.063 117.213V122.717C149.063 123.433 149.572 124.013 150.2 124.013H157.594C158.222 124.013 158.731 123.433 158.731 122.717V117.213C158.731 116.498 158.222 115.918 157.594 115.918Z" fill="#8C19E7" fill-opacity="0.62"/>
<path d="M157.594 105.233H150.2C149.572 105.233 149.063 105.812 149.063 106.528V112.032C149.063 112.747 149.572 113.327 150.2 113.327H157.594C158.222 113.327 158.731 112.747 158.731 112.032V106.528C158.731 105.812 158.222 105.233 157.594 105.233Z" fill="#1471FB"/>
<path d="M140.532 38.5312H78.824C78.1958 38.5312 77.6865 39.1111 77.6865 39.8264V52.4543C77.6865 53.1696 78.1958 53.7495 78.824 53.7495H140.532C141.16 53.7495 141.669 53.1696 141.669 52.4543V39.8264C141.669 39.1111 141.16 38.5312 140.532 38.5312Z" fill="white"/>
<path d="M126.882 43.0968H81.0987C80.6276 43.0968 80.2456 43.5317 80.2456 44.0682V44.4082C80.2456 44.9446 80.6276 45.3795 81.0987 45.3795H126.882C127.353 45.3795 127.735 44.9446 127.735 44.4082V44.0682C127.735 43.5317 127.353 43.0968 126.882 43.0968Z" fill="#8C19E7" fill-opacity="0.62"/>
<path d="M111.269 46.9014H81.0987C80.6276 46.9014 80.2456 47.3363 80.2456 47.8727V48.2127C80.2456 48.7492 80.6276 49.1841 81.0987 49.1841H111.269C111.74 49.1841 112.122 48.7492 112.122 48.2127V47.8727C112.122 47.3363 111.74 46.9014 111.269 46.9014Z" fill="#8C19E7" fill-opacity="0.62"/>
<path fill-rule="evenodd" clip-rule="evenodd" d="M134.831 48.407C135.931 48.407 136.822 47.3922 136.822 46.1404C136.822 44.8887 135.931 43.8739 134.831 43.8739C133.732 43.8739 132.841 44.8887 132.841 46.1404C132.841 47.3922 133.732 48.407 134.831 48.407Z" fill="#8C19E7" fill-opacity="0.62"/>
<path fill-rule="evenodd" clip-rule="evenodd" d="M134.831 47.1118C135.303 47.1118 135.684 46.677 135.684 46.1404C135.684 45.6039 135.303 45.1691 134.831 45.1691C134.36 45.1691 133.978 45.6039 133.978 46.1404C133.978 46.677 134.36 47.1118 134.831 47.1118Z" fill="#F2F2F2"/>
<path d="M140.532 56.3398H78.824C78.1958 56.3398 77.6865 56.9197 77.6865 57.635V67.6726C77.6865 68.3879 78.1958 68.9678 78.824 68.9678H140.532C141.16 68.9678 141.669 68.3879 141.669 67.6726V57.635C141.669 56.9197 141.16 56.3398 140.532 56.3398Z" fill="white"/>
<path d="M126.903 60.1283H81.0774C80.618 60.1283 80.2456 60.5523 80.2456 61.0754C80.2456 61.5985 80.618 62.0225 81.0774 62.0225H126.903C127.363 62.0225 127.735 61.5985 127.735 61.0754C127.735 60.5523 127.363 60.1283 126.903 60.1283Z" fill="#8C19E7" fill-opacity="0.62"/>
<path d="M111.29 63.2853H81.0774C80.618 63.2853 80.2456 63.7093 80.2456 64.2324C80.2456 64.7554 80.618 65.1795 81.0774 65.1795H111.29C111.75 65.1795 112.122 64.7554 112.122 64.2324C112.122 63.7093 111.75 63.2853 111.29 63.2853Z" fill="#8C19E7" fill-opacity="0.62"/>
<path fill-rule="evenodd" clip-rule="evenodd" d="M134.831 64.9204C135.931 64.9204 136.822 63.9057 136.822 62.6539C136.822 61.4021 135.931 60.3873 134.831 60.3873C133.732 60.3873 132.841 61.4021 132.841 62.6539C132.841 63.9057 133.732 64.9204 134.831 64.9204Z" fill="#8C19E7" fill-opacity="0.62"/>
<path fill-rule="evenodd" clip-rule="evenodd" d="M134.831 63.6253C135.303 63.6253 135.684 63.1904 135.684 62.6539C135.684 62.1173 135.303 61.6825 134.831 61.6825C134.36 61.6825 133.978 62.1173 133.978 62.6539C133.978 63.1904 134.36 63.6253 134.831 63.6253Z" fill="#F2F2F2"/>
<path d="M140.532 71.5581H78.824C78.1958 71.5581 77.6865 72.138 77.6865 72.8533V82.8908C77.6865 83.6061 78.1958 84.186 78.824 84.186H140.532C141.16 84.186 141.669 83.6061 141.669 82.8908V72.8533C141.669 72.138 141.16 71.5581 140.532 71.5581Z" fill="white"/>
<path d="M126.903 75.3466H81.0774C80.618 75.3466 80.2456 75.7706 80.2456 76.2936C80.2456 76.8167 80.618 77.2407 81.0774 77.2407H126.903C127.363 77.2407 127.735 76.8167 127.735 76.2936C127.735 75.7706 127.363 75.3466 126.903 75.3466Z" fill="#8C19E7" fill-opacity="0.62"/>
<path d="M111.29 78.5035H81.0774C80.618 78.5035 80.2456 78.9276 80.2456 79.4506C80.2456 79.9737 80.618 80.3977 81.0774 80.3977H111.29C111.75 80.3977 112.122 79.9737 112.122 79.4506C112.122 78.9276 111.75 78.5035 111.29 78.5035Z" fill="#8C19E7" fill-opacity="0.62"/>
<path fill-rule="evenodd" clip-rule="evenodd" d="M134.831 80.1387C135.931 80.1387 136.822 79.1239 136.822 77.8721C136.822 76.6204 135.931 75.6056 134.831 75.6056C133.732 75.6056 132.841 76.6204 132.841 77.8721C132.841 79.1239 133.732 80.1387 134.831 80.1387Z" fill="#8C19E7" fill-opacity="0.62"/>
<path fill-rule="evenodd" clip-rule="evenodd" d="M134.831 78.8435C135.303 78.8435 135.684 78.4087 135.684 77.8721C135.684 77.3356 135.303 76.9008 134.831 76.9008C134.36 76.9008 133.978 77.3356 133.978 77.8721C133.978 78.4087 134.36 78.8435 134.831 78.8435Z" fill="#AFB9C5"/>
<path d="M140.532 117.213H78.824C78.1958 117.213 77.6865 117.793 77.6865 118.508V128.546C77.6865 129.261 78.1958 129.841 78.824 129.841H140.532C141.16 129.841 141.669 129.261 141.669 128.546V118.508C141.669 117.793 141.16 117.213 140.532 117.213Z" fill="white"/>
<path d="M126.903 121.001H81.0774C80.618 121.001 80.2456 121.425 80.2456 121.948C80.2456 122.471 80.618 122.895 81.0774 122.895H126.903C127.363 122.895 127.735 122.471 127.735 121.948C127.735 121.425 127.363 121.001 126.903 121.001Z" fill="#8C19E7" fill-opacity="0.62"/>
<path d="M111.29 124.158H81.0774C80.618 124.158 80.2456 124.582 80.2456 125.105C80.2456 125.628 80.618 126.052 81.0774 126.052H111.29C111.75 126.052 112.122 125.628 112.122 125.105C112.122 124.582 111.75 124.158 111.29 124.158Z" fill="#8C19E7" fill-opacity="0.62"/>
<path fill-rule="evenodd" clip-rule="evenodd" d="M134.831 125.793C135.931 125.793 136.822 124.779 136.822 123.527C136.822 122.275 135.931 121.26 134.831 121.26C133.732 121.26 132.841 122.275 132.841 123.527C132.841 124.779 133.732 125.793 134.831 125.793Z" fill="#8C19E7" fill-opacity="0.62"/>
<path fill-rule="evenodd" clip-rule="evenodd" d="M134.831 124.498C135.303 124.498 135.684 124.063 135.684 123.527C135.684 122.99 135.303 122.555 134.831 122.555C134.36 122.555 133.978 122.99 133.978 123.527C133.978 124.063 134.36 124.498 134.831 124.498Z" fill="#F2F2F2"/>
<path d="M140.532 101.995H78.824C78.1958 101.995 77.6865 102.574 77.6865 103.29V113.327C77.6865 114.043 78.1958 114.623 78.824 114.623H140.532C141.16 114.623 141.669 114.043 141.669 113.327V103.29C141.669 102.574 141.16 101.995 140.532 101.995Z" fill="white"/>
<path d="M126.903 105.783H81.0774C80.618 105.783 80.2456 106.207 80.2456 106.73C80.2456 107.253 80.618 107.677 81.0774 107.677H126.903C127.363 107.677 127.735 107.253 127.735 106.73C127.735 106.207 127.363 105.783 126.903 105.783Z" fill="#8C19E7" fill-opacity="0.62"/>
<path d="M111.29 108.94H81.0774C80.618 108.94 80.2456 109.364 80.2456 109.887C80.2456 110.41 80.618 110.834 81.0774 110.834H111.29C111.75 110.834 112.122 110.41 112.122 109.887C112.122 109.364 111.75 108.94 111.29 108.94Z" fill="#8C19E7" fill-opacity="0.62"/>
<path fill-rule="evenodd" clip-rule="evenodd" d="M134.831 110.575C135.931 110.575 136.822 109.56 136.822 108.309C136.822 107.057 135.931 106.042 134.831 106.042C133.732 106.042 132.841 107.057 132.841 108.309C132.841 109.56 133.732 110.575 134.831 110.575Z" fill="#8C19E7" fill-opacity="0.62"/>
<path fill-rule="evenodd" clip-rule="evenodd" d="M134.831 109.28C135.303 109.28 135.684 108.845 135.684 108.309C135.684 107.772 135.303 107.337 134.831 107.337C134.36 107.337 133.978 107.772 133.978 108.309C133.978 108.845 134.36 109.28 134.831 109.28Z" fill="#F2F2F2"/>
<path d="M140.532 86.7764H78.824C78.1958 86.7764 77.6865 87.3562 77.6865 88.0715V98.1091C77.6865 98.8244 78.1958 99.4043 78.824 99.4043H140.532C141.16 99.4043 141.669 98.8244 141.669 98.1091V88.0715C141.669 87.3562 141.16 86.7764 140.532 86.7764Z" fill="white"/>
<path d="M126.903 90.5648H81.0774C80.618 90.5648 80.2456 90.9888 80.2456 91.5119C80.2456 92.035 80.618 92.459 81.0774 92.459H126.903C127.363 92.459 127.735 92.035 127.735 91.5119C127.735 90.9888 127.363 90.5648 126.903 90.5648Z" fill="#8C19E7" fill-opacity="0.62"/>
<path d="M111.29 93.7218H81.0774C80.618 93.7218 80.2456 94.1458 80.2456 94.6689C80.2456 95.192 80.618 95.616 81.0774 95.616H111.29C111.75 95.616 112.122 95.192 112.122 94.6689C112.122 94.1458 111.75 93.7218 111.29 93.7218Z" fill="#8C19E7" fill-opacity="0.62"/>
<path fill-rule="evenodd" clip-rule="evenodd" d="M134.831 95.3569C135.931 95.3569 136.822 94.3422 136.822 93.0904C136.822 91.8386 135.931 90.8239 134.831 90.8239C133.732 90.8239 132.841 91.8386 132.841 93.0904C132.841 94.3422 133.732 95.3569 134.831 95.3569Z" fill="#8C19E7" fill-opacity="0.62"/>
<path fill-rule="evenodd" clip-rule="evenodd" d="M134.831 94.0618C135.303 94.0618 135.684 93.6269 135.684 93.0904C135.684 92.5539 135.303 92.119 134.831 92.119C134.36 92.119 133.978 92.5539 133.978 93.0904C133.978 93.6269 134.36 94.0618 134.831 94.0618Z" fill="#F2F2F2"/>
<path fill-rule="evenodd" clip-rule="evenodd" d="M191.998 79.4509C190.876 78.5848 189.385 78.3578 188.043 78.3578C182.8 78.3578 177.872 80.5725 173.615 83.8726C171.283 85.6807 169.196 87.9835 167.354 90.3808C166.29 91.7651 165.342 93.262 164.671 94.9272C164.218 96.0511 163.907 97.2223 163.696 98.43C163.439 99.902 163.235 101.404 163.143 102.9C163.107 103.49 162.806 106.616 163.667 106.67C163.662 106.747 163.66 106.82 163.666 106.886C161.797 110.212 160.643 114.111 159.572 117.807C158.641 121.024 157.811 124.267 157.272 127.595C156.563 131.975 156.097 136.422 155.876 140.866C155.828 141.821 155.795 142.776 155.767 143.732C155.743 144.548 155.719 145.364 155.695 146.18C155.669 147.094 155.528 148.146 155.656 149.055C155.767 149.846 156.368 149.726 156.395 148.939C156.427 147.988 156.422 147.035 156.458 146.083C156.507 144.82 156.557 143.557 156.611 142.294C156.989 133.522 158.407 124.879 161.023 116.593C162.082 113.239 163.296 110.065 164.855 106.963C166.226 104.236 167.875 101.595 169.561 99.1365C171.199 96.7466 172.903 94.4124 174.91 92.3877C176.539 90.7448 178.331 89.3133 180.174 87.9815C182.513 86.2901 184.848 84.6397 187.383 83.3413C188.7 82.6665 190.042 82.0623 191.37 81.4144C191.609 81.2981 191.865 81.1851 192.095 81.0501C192.861 80.6001 192.609 79.9224 191.998 79.4509Z" fill="#C1DEE2"/>
<path fill-rule="evenodd" clip-rule="evenodd" d="M170.907 110.089C173.033 110.089 174.926 110.404 176.885 111.366C178.576 112.197 180.117 113.296 181.613 114.493C183.718 116.176 185.376 118.135 186.536 120.731C187.23 122.282 187.738 124.476 187.273 126.167C186.724 128.159 185.218 129.821 183.235 129.47C182.008 129.253 180.884 128.329 179.952 127.459C178.837 126.418 177.944 125.166 177.207 123.776C176.005 121.509 175.298 118.946 174.277 116.576C173.792 115.451 173.324 114.319 172.743 113.25C172.456 112.721 172.15 112.197 171.714 111.804C171.481 111.593 170.498 111.229 170.874 110.757C165.36 110.839 160.475 115.661 159.416 121.63C159.318 122.186 159.241 122.747 159.159 123.307C159.108 123.66 159.129 124.964 158.851 125.189C158.239 125.687 158.496 124.174 158.523 123.956C158.591 123.393 158.663 122.831 158.739 122.269C159.152 119.214 160.347 116.375 162.338 114.196C164.616 111.705 167.689 110.089 170.907 110.089Z" fill="#89C5CC"/>
<path fill-rule="evenodd" clip-rule="evenodd" d="M17.6671 102.557C22.9752 112.697 29.1576 122.515 32.8703 133.601C32.7207 132.294 32.562 130.989 32.3843 129.685C31.4425 122.775 30.2714 115.916 29.0413 109.065C28.4148 105.576 27.7519 102.101 27.0723 98.6253C26.7069 96.7586 26.3457 94.891 25.9726 93.0263C25.8822 92.5742 25.8046 91.7852 25.6917 90.9857C29.2998 104.467 32.7793 117.959 35.3244 131.765C35.6582 133.577 35.9426 135.385 36.1755 137.191C36.2551 136.779 36.3336 136.367 36.4192 135.956C37.4492 131.032 38.9939 126.148 40.8332 121.543C41.7124 119.342 42.7222 117.188 43.9114 115.181C44.6531 113.931 46.4019 112.444 47.0782 111.163C43.3788 118.889 42.0429 128.556 39.9067 136.956C39.3854 139.005 38.8608 141.052 38.3466 143.102C41.568 135.746 46.566 129.702 53.5151 127.083C45.1035 133.411 40.0582 144.494 36.6583 155.828C36.6473 155.963 36.6339 156.097 36.6222 156.232C37.6229 154.07 38.883 152.114 40.5909 150.745C44.2467 147.813 48.3018 148.667 51.8479 151.182C49.0648 149.168 44.0351 151.002 41.6934 153.049C40.017 154.515 38.5844 156.481 37.3403 158.399C37.0422 158.859 36.6353 159.396 36.2056 159.968C35.6033 164.42 34.6217 168.842 33.2317 173.229C33.4612 171.97 33.2954 169.956 33.3591 169.017C33.3659 168.916 33.3716 168.814 33.3784 168.713C33.1672 169.673 32.963 170.623 32.7665 171.557C33.1572 169.774 33.3693 167.913 33.5351 166.033C33.5778 165.225 33.6196 164.417 33.6634 163.609C33.6494 162.075 33.594 160.536 33.5002 158.994C33.1677 157.495 32.7952 156.082 32.4878 154.906C31.3796 150.664 29.7545 146.6 27.7545 142.809C25.9297 139.349 23.7453 136.216 21.2236 133.381C19.8642 131.854 18.4416 130.399 17.0389 128.924C16.5317 128.391 15.6251 127.08 14.8411 126.397C20.5513 129.981 26.4288 133.859 30.5945 139.635C30.1059 137.499 29.5756 135.394 29.0145 133.331C26.1677 122.864 22.5734 112.017 17.6671 102.557Z" fill="#8C19E7" fill-opacity="0.62"/>
<path fill-rule="evenodd" clip-rule="evenodd" d="M23.3721 159.953C23.3721 171.577 24.1805 181 35.0312 181C45.8818 181 46.6902 171.577 46.6902 159.953" fill="#1471FB"/>
<path d="M145.935 11.3327C145.935 10.7962 145.553 10.3613 145.082 10.3613C144.61 10.3613 144.229 10.7962 144.229 11.3327V17.4848C144.229 18.0212 144.61 18.4561 145.082 18.4561C145.553 18.4561 145.935 18.0212 145.935 17.4848V11.3327Z" fill="#8C19E7" fill-opacity="0.62"/>
<path d="M149.916 6.15204C149.916 5.61556 149.534 5.18066 149.063 5.18066C148.591 5.18066 148.209 5.61556 148.209 6.15204V17.4848C148.209 18.0213 148.591 18.4562 149.063 18.4562C149.534 18.4562 149.916 18.0213 149.916 17.4848V6.15204Z" fill="#8C19E7" fill-opacity="0.62"/>
<path d="M153.897 3.56171C153.897 3.02523 153.515 2.59033 153.044 2.59033C152.573 2.59033 152.191 3.02523 152.191 3.56171V17.4848C152.191 18.0213 152.573 18.4562 153.044 18.4562C153.515 18.4562 153.897 18.0213 153.897 17.4848V3.56171Z" fill="#8C19E7" fill-opacity="0.62"/>
<path d="M157.878 6.15204C157.878 5.61556 157.496 5.18066 157.025 5.18066C156.554 5.18066 156.172 5.61556 156.172 6.15204V17.4848C156.172 18.0213 156.554 18.4562 157.025 18.4562C157.496 18.4562 157.878 18.0213 157.878 17.4848V6.15204Z" fill="#8C19E7" fill-opacity="0.62"/>
<path d="M161.859 0.971377C161.859 0.4349 161.477 0 161.006 0C160.535 0 160.153 0.4349 160.153 0.971377V17.4848C160.153 18.0213 160.535 18.4562 161.006 18.4562C161.477 18.4562 161.859 18.0213 161.859 17.4848V0.971377Z" fill="#1471FB"/>
<path fill-rule="evenodd" clip-rule="evenodd" d="M4.31934 99.1634C4.31934 95.5566 6.87922 92.6046 10.0067 92.6046V99.1634L6.11995 103.937C5.01433 102.77 4.31934 101.058 4.31934 99.1634Z" fill="#F2F2F2"/>
<path fill-rule="evenodd" clip-rule="evenodd" d="M9.8562 99.0804H15.5997C15.5997 100.771 14.994 102.355 14.0366 103.506C12.9835 104.765 11.4839 105.556 9.8562 105.556C8.3569 105.556 6.98448 104.873 5.93115 103.794L9.8562 99.0804Z" fill="#AFB9C5"/>
<path fill-rule="evenodd" clip-rule="evenodd" d="M15.6941 99.0805C15.6941 95.5194 13.1342 92.6046 10.0067 92.6046V99.0805H15.6941ZM7.16302 92.6046L9.43796 98.4329L4.31934 95.8425C4.82551 94.3317 5.96213 93.181 7.16302 92.6046Z" fill="#1471FB"/>
<path fill-rule="evenodd" clip-rule="evenodd" d="M189.376 102.053C188.83 102.713 188.056 103.128 187.195 103.128C185.541 103.128 184.2 101.606 184.2 99.7281C184.2 97.8504 185.541 96.3282 187.195 96.3282V90.0143C182.489 90.0143 178.637 94.3865 178.637 99.7281C178.637 105.07 182.489 109.442 187.195 109.442C189.667 109.442 191.901 108.255 193.424 106.366L189.376 102.053Z" fill="#F2F2F2"/>
<path fill-rule="evenodd" clip-rule="evenodd" d="M187.168 90.0144V96.3284C188.817 96.3284 190.154 97.8505 190.154 99.7282H195.699C195.699 94.3866 191.859 90.0144 187.168 90.0144Z" fill="#AFB9C5"/>
<path fill-rule="evenodd" clip-rule="evenodd" d="M190.039 99.7281C190.039 100.831 189.583 101.812 188.874 102.445L192.361 107.499C194.391 105.69 195.699 102.885 195.699 99.7281H190.039Z" fill="#1471FB"/>
<path fill-rule="evenodd" clip-rule="evenodd" d="M135.143 12.7911C134.723 13.2975 134.127 13.6155 133.465 13.6155C132.192 13.6155 131.161 12.4485 131.161 11.009C131.161 9.56945 132.192 8.40246 133.465 8.40246V3.56177C129.845 3.56177 126.882 6.91376 126.882 11.009C126.882 15.1042 129.845 18.4562 133.465 18.4562C135.367 18.4562 137.085 17.546 138.257 16.0984L135.143 12.7911Z" fill="#F2F2F2"/>
<path fill-rule="evenodd" clip-rule="evenodd" d="M133.422 3.56177V8.40246C134.687 8.40246 135.712 9.56945 135.712 11.009H139.963C139.963 6.91376 137.019 3.56177 133.422 3.56177Z" fill="#AFB9C5"/>
<path fill-rule="evenodd" clip-rule="evenodd" d="M135.718 11.009C135.718 11.8364 135.376 12.5718 134.844 13.0467L137.459 16.8373C138.982 15.4802 139.963 13.3766 139.963 11.009H135.718Z" fill="#1471FB"/>
<path fill-rule="evenodd" clip-rule="evenodd" d="M31.6208 18.4517C31.6196 18.4551 31.6185 18.4584 31.6167 18.4624C31.6185 18.459 31.6208 18.4457 31.6208 18.4517Z" fill="#1471FB"/>
<path fill-rule="evenodd" clip-rule="evenodd" d="M31.6183 18.4568C31.6183 18.4575 31.6177 18.4589 31.6177 18.4602C31.6177 18.4568 31.6231 18.4464 31.6183 18.4568Z" fill="#1471FB"/>
<path fill-rule="evenodd" clip-rule="evenodd" d="M31.6378 18.4017C31.6338 18.4147 31.6287 18.427 31.6241 18.4399C31.6264 18.4335 31.6287 18.4283 31.631 18.4218C31.5718 18.5902 31.6094 18.4807 31.6378 18.4017Z" fill="#1471FB"/>
<path fill-rule="evenodd" clip-rule="evenodd" d="M31.6254 18.4409C31.623 18.4469 31.6207 18.4536 31.6184 18.4596C31.6014 18.4968 31.6254 18.4409 31.6254 18.4409Z" fill="#1471FB"/>
<path fill-rule="evenodd" clip-rule="evenodd" d="M31.6187 18.4573C31.6187 18.4564 31.6187 18.4565 31.6195 18.4556C31.6187 18.4565 31.6187 18.4564 31.6187 18.4573Z" fill="#1471FB"/>
<path fill-rule="evenodd" clip-rule="evenodd" d="M31.6161 18.4617C31.6126 18.4697 31.6325 18.4311 31.6161 18.4617V18.4617Z" fill="#1471FB"/>
<path fill-rule="evenodd" clip-rule="evenodd" d="M31.6182 18.4578L31.6201 18.4556C31.6191 18.4567 31.6191 18.4578 31.6182 18.4578Z" fill="#1471FB"/>
<path d="M43.8467 1.6189H19.1067C18.4785 1.6189 17.9692 2.19876 17.9692 2.91407V20.7227C17.9692 21.438 18.4785 22.0178 19.1067 22.0178H43.8467C44.4749 22.0178 44.9842 21.438 44.9842 20.7227V2.91407C44.9842 2.19876 44.4749 1.6189 43.8467 1.6189Z" fill="#8C19E7" fill-opacity="0.62"/>
<path fill-rule="evenodd" clip-rule="evenodd" d="M28.2064 7.44727L20.2441 22.0179H36.1687L28.2064 7.44727Z" fill="#AFB9C5"/>
<path fill-rule="evenodd" clip-rule="evenodd" d="M36.0266 11.3328L29.0596 22.0179H42.9936L36.0266 11.3328Z" fill="#1471FB"/>
<path fill-rule="evenodd" clip-rule="evenodd" d="M39.0124 11.3328C40.426 11.3328 41.5717 10.0281 41.5717 8.41865C41.5717 6.80921 40.426 5.50452 39.0124 5.50452C37.5988 5.50452 36.4531 6.80921 36.4531 8.41865C36.4531 10.0281 37.5988 11.3328 39.0124 11.3328Z" fill="white"/>
<path fill-rule="evenodd" clip-rule="evenodd" d="M167.26 156.711C167.262 156.714 167.263 156.718 167.265 156.722C167.263 156.718 167.26 156.705 167.26 156.711Z" fill="#1471FB"/>
<path fill-rule="evenodd" clip-rule="evenodd" d="M167.263 156.716C167.263 156.717 167.264 156.718 167.264 156.72C167.264 156.716 167.258 156.706 167.263 156.716Z" fill="#1471FB"/>
<path fill-rule="evenodd" clip-rule="evenodd" d="M167.243 156.661C167.247 156.674 167.253 156.686 167.257 156.699C167.255 156.693 167.253 156.688 167.25 156.681C167.309 156.85 167.272 156.74 167.243 156.661Z" fill="#1471FB"/>
<path fill-rule="evenodd" clip-rule="evenodd" d="M167.256 156.7C167.258 156.706 167.261 156.713 167.263 156.719C167.28 156.756 167.256 156.7 167.256 156.7Z" fill="#1471FB"/>
<path fill-rule="evenodd" clip-rule="evenodd" d="M167.263 156.717C167.263 156.716 167.263 156.716 167.262 156.715C167.263 156.716 167.263 156.716 167.263 156.717Z" fill="#1471FB"/>
<path fill-rule="evenodd" clip-rule="evenodd" d="M167.266 156.721C167.269 156.729 167.249 156.69 167.266 156.721V156.721Z" fill="#1471FB"/>
<path fill-rule="evenodd" clip-rule="evenodd" d="M167.264 156.717L167.262 156.715C167.263 156.716 167.263 156.717 167.264 156.717Z" fill="#1471FB"/>
<path d="M148.21 131.783H186.315C186.943 131.783 187.453 132.363 187.453 133.079V160.925C187.453 161.64 186.943 162.22 186.315 162.22H148.21C147.582 162.22 147.072 161.64 147.072 160.925V133.079C147.072 132.363 147.582 131.783 148.21 131.783Z" fill="#8C19E7" fill-opacity="0.62"/>
<path fill-rule="evenodd" clip-rule="evenodd" d="M172.459 140.526L184.134 162.22H160.784L172.459 140.526Z" fill="#AFB9C5"/>
<path fill-rule="evenodd" clip-rule="evenodd" d="M160.422 146.337L170.743 162.22H150.101L160.422 146.337Z" fill="#1471FB"/>
<path fill-rule="evenodd" clip-rule="evenodd" d="M156.03 146.354C153.91 146.354 152.191 144.397 152.191 141.983C152.191 139.569 153.91 137.612 156.03 137.612C158.15 137.612 159.869 139.569 159.869 141.983C159.869 144.397 158.15 146.354 156.03 146.354Z" fill="white"/>
</svg>
