<svg width="71" height="71" viewBox="0 0 71 71" fill="none" xmlns="http://www.w3.org/2000/svg">
<circle cx="35.5" cy="35.5" r="35.5" fill="#C1DAFE" fill-opacity="0.8"/>
<path d="M33.7266 24.6C26.1474 24.6 21.6 30.6798 21.6 33.72C21.6 36.7602 23.1156 39.0402 26.1474 39.0402C29.1792 39.0402 30.6954 39.7998 30.6954 42.0798C30.6954 45.1194 32.9688 47.3994 36.0006 47.3994C45.8538 47.3994 50.4006 42.0798 50.4006 36.7602C50.4 27.6402 42.8196 24.6 33.7266 24.6ZM31.8318 27.6402C32.0809 27.6405 32.3276 27.6899 32.5576 27.7855C32.7877 27.8812 32.9967 28.0212 33.1726 28.1976C33.3486 28.374 33.488 28.5833 33.5831 28.8136C33.6782 29.0439 33.7269 29.2907 33.7266 29.5398C33.7266 30.5898 32.8782 31.44 31.8318 31.44C30.7854 31.44 29.937 30.5892 29.937 29.5398C29.9367 29.2907 29.9854 29.0439 30.0805 28.8136C30.1755 28.5833 30.315 28.374 30.491 28.1976C30.6669 28.0212 30.8759 27.8812 31.106 27.7855C31.336 27.6899 31.5827 27.6405 31.8318 27.6402ZM37.8942 27.6402C38.1433 27.6405 38.39 27.6899 38.62 27.7855C38.8501 27.8812 39.0591 28.0212 39.235 28.1976C39.411 28.374 39.5504 28.5833 39.6455 28.8136C39.7406 29.0439 39.7893 29.2907 39.789 29.5398C39.7894 29.789 39.7407 30.0358 39.6457 30.2662C39.5507 30.4966 39.4112 30.706 39.2352 30.8824C39.0593 31.0589 38.8503 31.1989 38.6202 31.2946C38.3901 31.3903 38.1434 31.4397 37.8942 31.44C37.6451 31.4396 37.3984 31.3902 37.1684 31.2944C36.9384 31.1987 36.7294 31.0587 36.5536 30.8822C36.3777 30.7058 36.2382 30.4964 36.1433 30.2661C36.0483 30.0357 35.9996 29.7889 36 29.5398C35.9994 29.0367 36.1986 28.554 36.5538 28.1978C36.909 27.8416 37.3911 27.641 37.8942 27.6402ZM43.9578 30.6798C44.207 30.68 44.4538 30.7294 44.684 30.825C44.9141 30.9207 45.1232 31.0607 45.2992 31.2372C45.4752 31.4136 45.6148 31.6231 45.7098 31.8535C45.8049 32.0839 45.8536 32.3308 45.8532 32.58C45.8536 32.8292 45.8049 33.0761 45.7098 33.3064C45.6147 33.5368 45.4752 33.7462 45.2992 33.9226C45.1232 34.099 44.9141 34.239 44.6839 34.3346C44.4538 34.4302 44.207 34.4794 43.9578 34.4796C43.7087 34.4794 43.462 34.43 43.232 34.3344C43.0019 34.2388 42.7929 34.0988 42.617 33.9224C42.4411 33.746 42.3017 33.5366 42.2067 33.3063C42.1118 33.0759 42.0631 32.8291 42.0636 32.58C42.0631 32.3308 42.1118 32.084 42.2067 31.8537C42.3017 31.6233 42.4411 31.4139 42.617 31.2374C42.7929 31.061 43.0018 30.9209 43.2319 30.8252C43.462 30.7295 43.7086 30.6801 43.9578 30.6798ZM26.5266 32.2002C26.7757 32.2004 27.0223 32.2498 27.2523 32.3453C27.4823 32.4409 27.6913 32.5809 27.8672 32.7572C28.0431 32.9336 28.1825 33.1429 28.2775 33.3731C28.3725 33.6034 28.4212 33.8501 28.4208 34.0992C28.4208 35.1492 27.5724 35.9994 26.5266 35.9994C25.4808 35.9994 24.6318 35.1486 24.6318 34.0992C24.6313 33.5961 24.8307 33.1135 25.186 32.7574C25.5413 32.4013 26.0235 32.2008 26.5266 32.2002ZM36 39.7998C37.2558 39.7998 38.2734 40.8198 38.2734 42.0804C38.2734 43.3392 37.2558 44.3598 36 44.3598C34.7442 44.3598 33.7266 43.3392 33.7266 42.0804C33.726 41.7814 33.7844 41.4851 33.8984 41.2087C34.0124 40.9322 34.1797 40.6809 34.3908 40.4691C34.6019 40.2573 34.8527 40.0892 35.1288 39.9743C35.4049 39.8595 35.701 39.8002 36 39.7998Z" fill="#565252"/>
</svg>
