<svg width="71" height="71" viewBox="0 0 71 71" fill="none" xmlns="http://www.w3.org/2000/svg">
<circle cx="35.5" cy="35.5" r="35.5" fill="#C1DAFE" fill-opacity="0.8"/>
<path d="M50.0625 43.9833H46.8984C46.6641 44.711 46.293 45.3763 45.7852 45.9792L47.1621 48.5675C47.2793 48.817 47.3037 49.0665 47.2354 49.316C47.167 49.5655 47.0352 49.763 46.8398 49.9085L45.2871 50.8752C45.0723 51 44.8477 51.0312 44.6133 50.9688C44.3789 50.9064 44.2031 50.7505 44.0859 50.501L42.6797 47.8815C42.2891 47.9646 41.9375 48.0062 41.625 48.0062C41.3125 48.0062 40.9609 47.9646 40.5703 47.8815L39.1641 50.501C39.0469 50.7505 38.8711 50.9064 38.6367 50.9688C38.4023 51.0312 38.1777 51 37.9629 50.8752L36.4102 49.9085C36.2148 49.763 36.083 49.5655 36.0146 49.316C35.9463 49.0665 35.9707 48.817 36.0879 48.5675L37.4648 45.9792C36.957 45.3763 36.5859 44.711 36.3516 43.9833H33.1875C32.9336 43.9833 32.7139 43.8898 32.5283 43.7027C32.3428 43.5156 32.25 43.2765 32.25 42.9854V40.9896C32.25 40.7193 32.3428 40.4854 32.5283 40.2879C32.7139 40.0904 32.9336 39.9917 33.1875 39.9917H36.3516C36.5859 39.2848 36.957 38.6299 37.4648 38.027L36.0879 35.4387C35.9707 35.1892 35.9463 34.9397 36.0146 34.6902C36.083 34.4407 36.2148 34.2432 36.4102 34.0977L37.9629 33.131C38.1777 33.0062 38.4023 32.975 38.6367 33.0374C38.8711 33.0998 39.0469 33.2453 39.1641 33.474L40.5703 36.1247C40.9609 36.0416 41.3125 36 41.625 36C41.9375 36 42.2891 36.0416 42.6797 36.1247L44.0859 33.474C44.2031 33.2453 44.3789 33.0998 44.6133 33.0374C44.8477 32.975 45.0723 33.0062 45.2871 33.131L46.8398 34.0977C47.0352 34.2432 47.167 34.4407 47.2354 34.6902C47.3037 34.9397 47.2793 35.1892 47.1621 35.4387L45.7852 38.027C46.293 38.6299 46.6641 39.2848 46.8984 39.9917H50.0625C50.3164 39.9917 50.5361 40.0904 50.7217 40.2879C50.9072 40.4854 51 40.7193 51 40.9896V42.9854C51 43.2765 50.9072 43.5156 50.7217 43.7027C50.5361 43.8898 50.3164 43.9833 50.0625 43.9833ZM41.625 39.9917C41.0977 39.9917 40.6533 40.1892 40.292 40.5842C39.9307 40.9792 39.75 41.4522 39.75 42.0031C39.75 42.554 39.9307 43.0218 40.292 43.4064C40.6533 43.791 41.0977 43.9833 41.625 43.9833C42.1523 43.9833 42.5967 43.791 42.958 43.4064C43.3193 43.0218 43.5 42.554 43.5 42.0031C43.5 41.4522 43.3193 40.9792 42.958 40.5842C42.5967 40.1892 42.1523 39.9917 41.625 39.9917ZM38.8125 32.0083H35.6484C35.4141 32.7359 35.043 33.4012 34.5352 34.0041L35.9121 36.5925C36.0293 36.8212 36.0537 37.0655 35.9854 37.3253C35.917 37.5852 35.7852 37.7879 35.5898 37.9335L34.0371 38.9002C33.8223 39.0249 33.5977 39.0509 33.3633 38.9782C33.1289 38.9054 32.9531 38.7547 32.8359 38.526L31.4297 35.9064C31.0586 35.9688 30.707 36 30.375 36C30.043 36 29.6914 35.9688 29.3203 35.9064L27.9141 38.526C27.7969 38.7547 27.6211 38.9054 27.3867 38.9782C27.1523 39.0509 26.9277 39.0249 26.7129 38.9002L25.1602 37.9335C24.9648 37.7879 24.833 37.5852 24.7646 37.3253C24.6963 37.0655 24.7207 36.8212 24.8379 36.5925L26.2148 34.0041C25.707 33.4012 25.3359 32.7359 25.1016 32.0083H21.9375C21.6836 32.0083 21.4639 31.9147 21.2783 31.7276C21.0928 31.5405 21 31.3014 21 31.0104V29.0145C21 28.7443 21.0928 28.5104 21.2783 28.3129C21.4639 28.1154 21.6836 28.0166 21.9375 28.0166H25.1016C25.3359 27.3098 25.707 26.6445 26.2148 26.0208L24.8379 23.4324C24.7207 23.2037 24.6963 22.9594 24.7646 22.6996C24.833 22.4397 24.9648 22.2474 25.1602 22.1226L26.7129 21.1559C26.9277 21.0104 27.1523 20.974 27.3867 21.0468C27.6211 21.1195 27.7969 21.2703 27.9141 21.4989L29.3203 24.1497C29.7109 24.0665 30.0625 24.0249 30.375 24.0249C30.6875 24.0249 31.0391 24.0665 31.4297 24.1497L32.8359 21.4989C32.9531 21.2703 33.1289 21.1195 33.3633 21.0468C33.5977 20.974 33.8223 21.0104 34.0371 21.1559L35.5898 22.1226C35.7852 22.2474 35.917 22.4397 35.9854 22.6996C36.0537 22.9594 36.0293 23.2037 35.9121 23.4324L34.5352 26.0208C35.043 26.6445 35.4141 27.3098 35.6484 28.0166H38.8125C39.0664 28.0166 39.2861 28.1154 39.4717 28.3129C39.6572 28.5104 39.75 28.7443 39.75 29.0145V31.0104C39.75 31.3014 39.6572 31.5405 39.4717 31.7276C39.2861 31.9147 39.0664 32.0083 38.8125 32.0083ZM30.375 28.0166C29.8477 28.0166 29.4033 28.2141 29.042 28.6091C28.6807 29.0041 28.5 29.4771 28.5 30.028C28.5 30.579 28.6807 31.0468 29.042 31.4314C29.4033 31.816 29.8477 32.0083 30.375 32.0083C30.9023 32.0083 31.3467 31.816 31.708 31.4314C32.0693 31.0468 32.25 30.579 32.25 30.028C32.25 29.4771 32.0693 29.0041 31.708 28.6091C31.3467 28.2141 30.9023 28.0166 30.375 28.0166Z" fill="#565252"/>
</svg>
