<svg width="71" height="71" viewBox="0 0 71 71" fill="none" xmlns="http://www.w3.org/2000/svg">
<circle cx="35.5" cy="35.5" r="35.5" fill="#C1DAFE" fill-opacity="0.8"/>
<path d="M35.9875 23.5C29.0875 23.5 23.5 29.1 23.5 36C23.5 42.9 29.0875 48.5 35.9875 48.5C42.9 48.5 48.5 42.9 48.5 36C48.5 29.1 42.9 23.5 35.9875 23.5ZM44.65 31H40.9625C40.5713 29.4518 39.992 27.9574 39.2375 26.55C41.5176 27.335 43.439 28.9147 44.65 31ZM36 26.05C37.0375 27.55 37.85 29.2125 38.3875 31H33.6125C34.15 29.2125 34.9625 27.55 36 26.05ZM26.325 38.5C26.125 37.7 26 36.8625 26 36C26 35.1375 26.125 34.3 26.325 33.5H30.55C30.45 34.325 30.375 35.15 30.375 36C30.375 36.85 30.45 37.675 30.55 38.5H26.325ZM27.35 41H31.0375C31.4375 42.5625 32.0125 44.0625 32.7625 45.45C30.48 44.6693 28.5573 43.0885 27.35 41ZM31.0375 31H27.35C28.5573 28.9115 30.48 27.3307 32.7625 26.55C32.008 27.9574 31.4287 29.4518 31.0375 31ZM36 45.95C34.9625 44.45 34.15 42.7875 33.6125 41H38.3875C37.85 42.7875 37.0375 44.45 36 45.95ZM38.925 38.5H33.075C32.9625 37.675 32.875 36.85 32.875 36C32.875 35.15 32.9625 34.3125 33.075 33.5H38.925C39.0375 34.3125 39.125 35.15 39.125 36C39.125 36.85 39.0375 37.675 38.925 38.5ZM39.2375 45.45C39.9875 44.0625 40.5625 42.5625 40.9625 41H44.65C43.439 43.0853 41.5176 44.665 39.2375 45.45ZM41.45 38.5C41.55 37.675 41.625 36.85 41.625 36C41.625 35.15 41.55 34.325 41.45 33.5H45.675C45.875 34.3 46 35.1375 46 36C46 36.8625 45.875 37.7 45.675 38.5H41.45Z" fill="#565252"/>
</svg>
