<svg width="374" height="225" viewBox="0 0 374 225" fill="none" xmlns="http://www.w3.org/2000/svg">
<path d="M102.849 92.7096L91.9113 91.7904C90.8696 91.7904 90.0424 91.8824 89.4297 92.0662C89.7973 95.5588 91.2679 98.4694 93.8415 100.798C96.4763 103.126 99.5706 104.29 103.125 104.29C106.556 104.29 109.65 103.034 112.408 100.522C113.388 99.6642 114.123 99.2353 114.614 99.2353C115.104 99.2353 115.533 99.4191 115.9 99.7868C116.268 100.154 116.452 100.553 116.452 100.982C116.452 102.759 114.705 104.964 111.213 107.599C107.781 110.234 103.86 111.551 99.4481 111.551C95.0976 111.551 91.2986 109.775 88.051 106.221C84.8647 102.667 83.2716 98.2549 83.2716 92.9853C83.2716 86.2451 85.8145 80.5772 90.9003 75.9816C95.9861 71.386 101.593 69.0882 107.72 69.0882C110.294 69.0882 112.377 69.5478 113.97 70.4669C115.625 71.3248 116.452 72.4583 116.452 73.8677C116.452 75.2157 116.023 76.3186 115.165 77.1765C114.368 78.0343 113.572 78.4632 112.775 78.4632C111.979 78.4632 110.6 78.0956 108.639 77.3603C106.74 76.625 104.902 76.2574 103.125 76.2574C99.8157 76.2574 96.9358 77.2684 94.4848 79.2904C92.0951 81.2512 90.502 83.7022 89.7054 86.6434L102.389 85.9081C105.208 85.9081 106.617 87.011 106.617 89.2169C106.617 91.5453 105.361 92.7096 102.849 92.7096ZM132.375 89.4007L133.111 106.037C133.111 107.691 132.682 109.039 131.824 110.081C131.027 111.061 130.047 111.551 128.883 111.551C127.719 111.551 126.769 111.092 126.034 110.173C125.298 109.192 124.931 107.875 124.931 106.221C124.931 104.566 125.084 102.207 125.39 99.1434C126.003 93.0159 126.309 87.8382 126.309 83.6103C126.309 81.7721 125.727 80.0257 124.563 78.3713C123.46 76.6556 122.909 75.1238 122.909 73.7757C122.909 72.4277 123.368 71.3248 124.287 70.4669C125.206 69.5478 126.248 69.0882 127.412 69.0882C130.476 69.0882 132.008 71.5086 132.008 76.3493V79.9338C133.846 76.625 136.052 73.9902 138.625 72.0294C141.199 70.0686 143.558 69.0882 145.703 69.0882C147.847 69.0882 149.471 69.6397 150.574 70.7427C151.738 71.7843 152.32 73.1936 152.32 74.9706C152.32 76.7476 151.891 78.2488 151.034 79.4743C150.176 80.6385 149.257 81.2206 148.276 81.2206C147.296 81.2206 146.53 80.9755 145.978 80.4853C145.488 79.9338 145.121 79.3824 144.875 78.8309C144.63 78.2181 144.171 77.6667 143.497 77.1765C142.823 76.625 141.965 76.3493 140.923 76.3493C139.146 76.3493 137.369 77.5135 135.592 79.8419C133.815 82.1703 132.743 85.3566 132.375 89.4007ZM176.001 92.7096L165.064 91.7904C164.022 91.7904 163.195 91.8824 162.582 92.0662C162.95 95.5588 164.42 98.4694 166.994 100.798C169.629 103.126 172.723 104.29 176.277 104.29C179.708 104.29 182.803 103.034 185.56 100.522C186.54 99.6642 187.276 99.2353 187.766 99.2353C188.256 99.2353 188.685 99.4191 189.053 99.7868C189.42 100.154 189.604 100.553 189.604 100.982C189.604 102.759 187.858 104.964 184.365 107.599C180.934 110.234 177.012 111.551 172.6 111.551C168.25 111.551 164.451 109.775 161.203 106.221C158.017 102.667 156.424 98.2549 156.424 92.9853C156.424 86.2451 158.967 80.5772 164.053 75.9816C169.138 71.386 174.745 69.0882 180.873 69.0882C183.446 69.0882 185.529 69.5478 187.123 70.4669C188.777 71.3248 189.604 72.4583 189.604 73.8677C189.604 75.2157 189.175 76.3186 188.317 77.1765C187.521 78.0343 186.724 78.4632 185.928 78.4632C185.131 78.4632 183.752 78.0956 181.792 77.3603C179.892 76.625 178.054 76.2574 176.277 76.2574C172.968 76.2574 170.088 77.2684 167.637 79.2904C165.248 81.2512 163.654 83.7022 162.858 86.6434L175.542 85.9081C178.36 85.9081 179.77 87.011 179.77 89.2169C179.77 91.5453 178.513 92.7096 176.001 92.7096ZM204.609 84.7132L205.16 107.14C205.16 108.426 204.793 109.499 204.057 110.357C203.322 111.153 202.372 111.551 201.208 111.551C200.044 111.551 199.033 111.153 198.175 110.357C197.378 109.499 196.98 108.426 196.98 107.14L197.623 88.9412C197.623 88.9412 197.409 83.8248 196.98 73.5919C196.98 72.3052 197.378 71.2328 198.175 70.375C199.033 69.5172 200.044 69.0882 201.208 69.0882C202.372 69.0882 203.322 69.5172 204.057 70.375C204.793 71.1716 205.16 72.1826 205.16 73.4081C205.16 74.6336 205.13 75.5527 205.068 76.1654C208.5 71.4473 212.452 69.0882 216.925 69.0882C223.359 69.0882 227.495 73.4081 229.333 82.0478L232.826 97.8566C233.193 99.2659 233.929 100.798 235.032 102.452C236.196 104.045 236.778 105.485 236.778 106.772C236.778 109.958 235.246 111.551 232.182 111.551C229.119 111.551 227.127 109.131 226.208 104.29L222.715 85.0809C221.551 78.9534 218.396 75.8897 213.248 75.8897C210.614 75.8897 208.561 76.7782 207.09 78.5552C205.62 80.3321 204.793 82.3848 204.609 84.7132Z" fill="#0066FF"/>
<g filter="url(#filter0_d)">
<path d="M62.0809 59.4117H70.3995V127.022H300.132V136.618H62.0809V59.4117Z" fill="#0025A9"/>
</g>
<path d="M256.867 112.238C256.867 112.238 258.593 118.697 269.392 117.045L271.228 112.721L268.122 109.437L259.521 106.676L256.865 112.239" fill="#34484C"/>
<path d="M291.281 100.129C291.281 102.417 290.067 103.017 287.017 104.274L260.94 114.984C260.38 114.985 259.826 114.877 259.309 114.669C258.791 114.46 258.322 114.155 257.926 113.77C257.53 113.384 257.216 112.927 257.002 112.424C256.788 111.921 256.678 111.381 256.679 110.836V75.1912C256.679 72.8971 258.062 72.137 260.94 71.0414L287.017 60.3309C288.147 60.3307 289.231 60.7671 290.03 61.5443C290.83 62.3214 291.279 63.3757 291.28 64.4752V100.128" fill="#1EA0CD"/>
<path d="M259.05 114.547C259.05 114.547 268.823 117.276 269.392 117.041C269.963 116.805 269.028 112.917 269.028 112.917L265.493 109.212L262.203 109.065L261.624 109.865L259.049 114.547" fill="#34484C"/>
<path d="M286.405 62.7968L257.478 74.624L258.833 82.2002L263.136 82.6194L277.508 80.3675L286.443 75.8115L293.021 67.0477C291.583 64.5394 289.474 62.987 286.406 62.7968" fill="#F4F5F5"/>
<path d="M265.141 77.2443C265.141 76.5826 265.258 76.0495 265.493 75.5991C262.535 75.3326 259.74 74.4971 257.697 72.7085C257.022 73.3133 256.69 74.067 256.69 75.1901V110.837C256.689 111.382 256.799 111.921 257.013 112.424C257.227 112.927 257.541 113.385 257.936 113.77C258.332 114.155 258.801 114.461 259.318 114.669C259.835 114.878 260.39 114.985 260.949 114.985L265.159 113.256C265.147 113.136 265.14 113.015 265.14 112.894V77.2443H265.141Z" fill="#34484C"/>
<path d="M300.484 103.641C300.484 105.935 299.276 106.532 296.222 107.789L269.395 117.044C268.265 117.044 267.181 116.607 266.381 115.829C265.582 115.051 265.133 113.996 265.132 112.896V77.2471C265.132 74.9566 266.517 74.1937 269.395 73.1009L296.222 63.8454C297.352 63.8456 298.436 64.2828 299.236 65.0606C300.035 65.8385 300.484 66.8934 300.484 67.9934V103.641Z" fill="#57C6E9"/>
<path d="M289.375 74.726C289.402 74.7948 289.416 74.8683 289.414 74.9421C289.412 75.016 289.395 75.0887 289.364 75.1562C289.334 75.2237 289.289 75.2846 289.234 75.3354C289.179 75.3862 289.114 75.4258 289.043 75.4521L274.775 80.806C274.633 80.8595 274.474 80.856 274.335 80.7962C274.195 80.7365 274.085 80.6253 274.029 80.487C273.974 80.3477 273.978 80.1928 274.04 80.0563C274.102 79.9197 274.217 79.8126 274.36 79.7582L288.629 74.4071C288.699 74.3803 288.774 74.3673 288.85 74.3689C288.926 74.3705 289 74.3865 289.07 74.4161C289.139 74.4457 289.202 74.4883 289.254 74.5415C289.306 74.5947 289.347 74.6574 289.375 74.726Z" fill="#198BA9"/>
<path d="M289.376 77.2793C289.403 77.3479 289.416 77.4211 289.414 77.4946C289.412 77.5681 289.395 77.6405 289.364 77.7076C289.334 77.7747 289.289 77.8353 289.234 77.8858C289.18 77.9362 289.115 77.9757 289.044 78.0017L274.776 83.3547C274.636 83.3989 274.483 83.3892 274.35 83.3275C274.217 83.2658 274.113 83.1568 274.06 83.0229C274.007 82.8891 274.008 82.7405 274.064 82.6076C274.12 82.4748 274.226 82.3679 274.361 82.3087L288.63 76.9558C288.773 76.9028 288.931 76.907 289.071 76.9677C289.211 77.0283 289.321 77.1403 289.376 77.2793Z" fill="#198BA9"/>
<path d="M284.524 81.7352C284.635 82.0256 284.566 82.3197 284.363 82.3969L274.617 86.0504C274.416 86.1267 274.16 85.9567 274.044 85.6672C273.931 85.3758 274.001 85.0789 274.203 85.0063L283.947 81.3482C284.152 81.2747 284.408 81.4456 284.525 81.7343" fill="#198BA9"/>
<defs>
<filter id="filter0_d" x="-11.4485" y="0.58822" width="385.11" height="224.265" filterUnits="userSpaceOnUse" color-interpolation-filters="sRGB">
<feFlood flood-opacity="0" result="BackgroundImageFix"/>
<feColorMatrix in="SourceAlpha" type="matrix" values="0 0 0 0 0 0 0 0 0 0 0 0 0 0 0 0 0 0 127 0"/>
<feOffset dy="14.7059"/>
<feGaussianBlur stdDeviation="36.7647"/>
<feColorMatrix type="matrix" values="0 0 0 0 0 0 0 0 0 0 0 0 0 0 0 0 0 0 0.3 0"/>
<feBlend mode="normal" in2="BackgroundImageFix" result="effect1_dropShadow"/>
<feBlend mode="normal" in="SourceGraphic" in2="effect1_dropShadow" result="shape"/>
</filter>
</defs>
</svg>
