<svg width="81" height="84" viewBox="0 0 81 84" fill="none" xmlns="http://www.w3.org/2000/svg">
<g clip-path="url(#clip0)">
<path d="M40.5 0.797409C18.1339 0.797409 0 19.2325 0 41.9702C0 64.7078 18.1339 83.1429 40.5 83.1429C62.8661 83.1429 81 64.7078 81 41.9702C81 19.2325 62.8661 0.797409 40.5 0.797409ZM40.5 10.3467C57.6787 10.3467 71.6067 24.5061 71.6067 41.9702C71.6067 59.4342 57.6787 73.5936 40.5 73.5936C23.3213 73.5936 9.3933 59.4342 9.3933 41.9702C9.3933 24.5061 23.3213 10.3467 40.5 10.3467ZM30.375 21.4139V62.5264L60.75 41.9702L30.375 21.4139Z" fill="white"/>
</g>
<defs>
<clipPath id="clip0">
<rect y="0.797409" width="81" height="82.3455" fill="white"/>
</clipPath>
</defs>
</svg>
